<svg width="1722" height="925" viewBox="0 0 1722 925" fill="none" xmlns="http://www.w3.org/2000/svg">
<g clip-path="url(#clip0_94_413)">
<path d="M1099.67 570.826C1090.98 605.128 1066.67 633.789 1030.07 656.233C993.463 678.679 944.59 694.887 886.849 704.283C771.37 723.073 620.521 714.595 461.685 674.372C302.849 634.15 166.146 569.81 73.5276 498.322C27.2179 462.578 -8.05071 425.062 -29.5612 387.899C-51.0701 350.739 -58.8075 313.964 -50.1209 279.661C-41.4343 245.359 -17.1263 216.698 19.4762 194.254C56.0815 171.808 104.955 155.6 162.696 146.204C278.175 127.414 429.024 135.892 587.86 176.115C746.696 216.337 883.399 280.677 976.017 352.165C1022.33 387.909 1057.6 425.425 1079.11 462.588C1100.61 499.748 1108.35 536.523 1099.67 570.826Z" stroke="url(#paint0_linear_94_413)"/>
<path d="M1360.27 636.821C1347.63 686.733 1312.27 728.418 1259.05 761.049C1205.83 793.681 1134.79 817.238 1050.88 830.892C883.06 858.199 663.855 845.877 433.054 787.431C202.254 728.984 3.60352 635.491 -130.994 531.602C-198.294 479.656 -249.56 425.127 -280.833 371.099C-312.104 317.073 -323.368 263.58 -310.728 213.667C-298.088 163.755 -262.722 122.07 -209.507 89.4391C-156.289 56.8069 -85.2484 33.2496 -1.33704 19.5959C166.484 -7.71131 385.689 4.61065 616.49 63.0571C847.29 121.504 1045.94 214.997 1180.54 318.886C1247.84 370.832 1299.1 425.361 1330.38 479.389C1361.65 533.414 1372.91 586.908 1360.27 636.821Z" stroke="url(#paint1_linear_94_413)"/>
<path d="M1677.38 717.123C1659.93 786.03 1611.11 843.564 1537.68 888.589C1464.25 933.617 1366.23 966.116 1250.48 984.951C1018.97 1022.62 716.585 1005.62 398.217 925.001C79.8489 844.379 -194.179 715.413 -379.858 572.096C-472.698 500.437 -543.431 425.205 -586.582 350.655C-629.732 276.107 -645.287 202.272 -627.837 133.365C-610.388 64.4573 -561.566 6.92394 -488.136 -38.1017C-414.704 -83.129 -316.69 -115.628 -200.933 -134.464C30.5775 -172.134 332.959 -155.135 651.327 -74.5132C969.695 6.10825 1243.72 135.075 1429.4 278.392C1522.24 350.051 1592.97 425.283 1636.13 499.833C1679.28 574.38 1694.83 648.216 1677.38 717.123Z" stroke="url(#paint2_linear_94_413)"/>
</g>
<defs>
<linearGradient id="paint0_linear_94_413" x1="-10.3038" y1="259.795" x2="985.755" y2="673.025" gradientUnits="userSpaceOnUse">
<stop stop-color="#E1E1E1"/>
<stop offset="0.491388" stop-color="#BDBDBD" stop-opacity="0.36"/>
<stop offset="1" stop-color="#E8E8E8"/>
</linearGradient>
<linearGradient id="paint1_linear_94_413" x1="-252.657" y1="184.859" x2="1194.55" y2="785.253" gradientUnits="userSpaceOnUse">
<stop stop-color="#E1E1E1"/>
<stop offset="0.491388" stop-color="#BDBDBD" stop-opacity="0.36"/>
<stop offset="1" stop-color="#E8E8E8"/>
</linearGradient>
<linearGradient id="paint2_linear_94_413" x1="-547.555" y1="93.6755" x2="1448.61" y2="921.813" gradientUnits="userSpaceOnUse">
<stop stop-color="#E1E1E1"/>
<stop offset="0.491388" stop-color="#BDBDBD" stop-opacity="0.36"/>
<stop offset="1" stop-color="#E8E8E8"/>
</linearGradient>
<clipPath id="clip0_94_413">
<rect width="1817" height="925" fill="white" transform="translate(-95)"/>
</clipPath>
</defs>
</svg>
