<svg width="568" height="557" viewBox="0 0 568 557" fill="none" xmlns="http://www.w3.org/2000/svg">
<path d="M64.2357 543.647C101.703 516.312 151.434 535.36 197.145 521.33C244.151 506.761 240.909 488.804 304.248 468.414C344.279 455.474 470.577 495.237 513.248 492.404C564.57 488.865 586.806 459.415 638.038 463.685C668.608 466.268 699.01 468.872 729.581 471.455" stroke="url(#paint0_linear_103_111)" stroke-miterlimit="10"/>
<path d="M62.497 531.239C87.3632 513.026 117.899 515.362 148.874 514.75C164.276 514.455 179.742 513.397 194.867 508.733C241.74 494.428 239.342 476.361 301.997 457.185C314.494 453.354 334.765 454.712 358.051 457.958C407.444 464.976 469.975 479.908 503.317 480.258C506.067 480.29 508.631 480.22 511.009 480.048C552.935 476.805 575.817 456.702 610.816 451.811C618.554 450.715 626.921 450.421 636.121 451.155C666.674 453.615 697.263 456.323 727.834 458.907" stroke="url(#paint1_linear_103_111)" stroke-miterlimit="10"/>
<path d="M60.7548 518.828C85.4704 500.754 115.82 502.989 146.778 502.253C162.012 501.979 177.479 500.92 192.621 496.379C239.193 482.36 237.788 464.037 299.777 446.197C312.31 442.612 332.599 444.095 355.734 447.486C405.349 454.856 467.35 468.475 501.128 468.267C503.878 468.3 506.443 468.23 508.803 467.934C550.491 464.217 573.763 444.436 608.762 439.544C616.501 438.448 624.85 438.03 634.05 438.764C664.755 441.081 695.344 443.789 725.932 446.497" stroke="url(#paint2_linear_103_111)" stroke-miterlimit="10"/>
<path d="M59.0156 506.418C83.7316 488.34 113.896 490.473 144.685 489.758C159.919 489.484 175.2 488.323 190.36 483.904C236.613 470.047 236.238 451.717 297.525 434.968C310.244 431.485 330.418 433.36 353.402 436.897C403.407 444.598 464.71 456.923 498.923 456.157C501.656 456.066 504.221 455.996 506.599 455.824C547.897 451.777 571.559 432.32 606.879 427.261C614.617 426.165 622.967 425.747 632.167 426.482C662.854 428.675 693.461 431.507 724.37 434.051" stroke="url(#paint3_linear_103_111)" stroke-miterlimit="10"/>
<path d="M57.2583 493.887C81.8237 475.948 111.953 477.835 142.592 477.265C157.64 476.888 173.107 475.829 188.099 471.43C234.051 457.859 234.687 439.397 295.29 423.862C308.213 420.604 328.236 422.625 351.07 426.308C401.297 434.361 462.07 445.372 496.72 444.047C499.453 443.956 502.017 443.886 504.378 443.59C545.438 439.069 569.49 419.935 604.81 414.875C612.717 413.757 621.067 413.339 630.249 413.95C661.088 415.999 691.696 418.833 722.623 421.5" stroke="url(#paint4_linear_103_111)" stroke-miterlimit="10"/>
<path d="M55.518 481.474C79.9327 463.675 110.045 465.439 140.498 464.766C155.547 464.389 170.827 463.228 185.836 458.952C231.487 445.667 233.153 427.197 293.054 412.754C306.164 409.598 326.071 412.012 348.754 415.841C399.203 424.246 459.446 433.941 494.532 432.057C497.265 431.966 499.811 431.773 502.172 431.476C543.011 426.604 567.454 407.795 602.757 402.609C610.664 401.491 619.014 401.073 628.196 401.684C659.187 403.589 689.812 406.547 720.739 409.216" stroke="url(#paint5_linear_103_111)" stroke-miterlimit="10"/>
<path d="M53.7783 469.066C78.0248 451.283 107.952 452.944 138.405 452.272C153.454 451.895 168.565 450.754 183.575 446.477C228.907 433.354 231.771 414.854 290.82 401.648C303.965 398.738 323.907 401.4 346.422 405.252C397.093 414.01 456.806 422.389 492.328 419.946C495.043 419.732 497.59 419.538 499.951 419.242C540.569 414.018 565.385 395.408 600.688 390.221C608.596 389.103 617.114 388.663 626.279 389.151C657.253 390.933 687.896 394.016 719.161 396.643" stroke="url(#paint6_linear_103_111)" stroke-miterlimit="10"/>
<path d="M52.0386 456.649C76.303 438.986 106.026 440.421 136.311 439.77C151.191 439.414 166.472 438.252 181.314 433.994C226.361 421.283 230.236 402.651 288.584 390.539C301.915 387.731 321.725 390.663 344.106 394.784C394.999 403.894 454.031 411.101 490.326 408.057C493.041 407.842 495.588 407.648 497.949 407.352C538.329 401.653 563.535 383.368 599.007 378.159C607.083 377.019 615.416 376.477 624.599 377.088C655.741 378.85 686.367 381.809 717.632 384.437" stroke="url(#paint7_linear_103_111)" stroke-miterlimit="10"/>
<path d="M50.2979 444.241C74.3941 426.594 104.117 428.029 134.216 427.275C149.097 426.919 164.192 425.654 179.052 421.52C223.78 408.971 228.871 390.432 286.348 379.434C299.883 376.852 319.56 380.053 341.773 384.197C392.888 393.661 451.39 399.55 488.121 395.946C490.836 395.731 493.366 395.414 495.726 395.117C535.717 389.087 561.482 371.105 596.937 365.77C604.996 364.507 613.346 364.088 622.511 364.576C653.636 366.214 684.449 369.277 715.715 371.906" stroke="url(#paint8_linear_103_111)" stroke-miterlimit="10"/>
<path d="M48.542 431.712C72.4876 414.204 102.008 415.414 132.107 414.66C146.819 414.325 161.915 413.059 176.774 408.923C221.201 396.661 227.49 378.092 283.929 368.23C297.668 365.874 317.211 369.345 339.256 373.511C390.779 383.431 448.565 387.9 485.732 383.736C488.43 383.397 490.977 383.203 493.32 382.783C533.09 376.401 559.227 358.618 594.683 353.282C602.742 352.018 611.261 351.578 620.409 351.942C651.685 353.436 682.498 356.5 713.782 359.254" stroke="url(#paint9_linear_103_111)" stroke-miterlimit="10"/>
<path d="M46.8023 419.298C70.5972 401.931 100.1 403.017 130.014 402.16C144.709 401.701 159.635 400.456 174.512 396.443C218.638 384.468 225.974 366.015 281.693 357.124C295.618 354.87 315.046 358.735 336.94 363.047C388.685 373.321 445.79 376.615 483.544 371.746C486.242 371.407 488.772 371.089 491.115 370.669C530.664 363.934 557.023 346.497 592.63 341.015C600.689 339.75 609.208 339.311 618.356 339.675C649.615 341.045 680.446 344.235 712.068 346.947" stroke="url(#paint10_linear_103_111)" stroke-miterlimit="10"/>
<path d="M45.0626 406.891C68.6892 389.539 98.1751 390.502 127.92 389.666C142.615 389.207 157.542 387.962 172.251 383.969C216.075 372.28 224.627 353.921 279.458 346.021C293.588 343.994 312.865 348.005 334.608 352.464C386.575 363.092 443.168 365.19 481.34 359.636C484.038 359.297 486.567 358.979 488.911 358.559C528.239 351.472 554.971 334.235 590.748 328.729C598.975 327.443 607.476 326.88 616.456 327.265C647.867 328.491 678.698 331.681 710.32 334.394" stroke="url(#paint11_linear_103_111)" stroke-miterlimit="10"/>
<path d="M43.3224 394.473C66.9669 377.241 96.249 377.977 125.826 377.162C140.353 376.724 155.28 375.479 170.007 371.609C213.68 360.062 223.465 341.922 277.24 335.036C291.573 333.235 310.717 337.517 332.309 342.122C384.498 353.104 440.561 353.881 479.169 347.766C481.85 347.303 484.379 346.985 486.722 346.564C525.661 339.146 552.935 322.089 588.712 316.582C596.939 315.296 605.441 314.732 614.589 315.096C646.151 316.177 677 319.493 708.623 322.206" stroke="url(#paint12_linear_103_111)" stroke-miterlimit="10"/>
<path d="M41.5826 382.065C65.059 364.848 94.1728 365.606 123.733 364.667C138.26 364.229 153.001 362.881 167.745 359.133C211.117 347.873 222.136 329.95 275.005 323.934C289.524 322.235 308.721 326.891 329.977 331.54C382.405 343 437.769 342.478 476.965 335.656C479.645 335.193 482.157 334.751 484.5 334.33C523.2 326.434 550.882 309.825 586.642 304.193C594.87 302.906 603.372 302.342 612.503 302.582C644.048 303.54 674.915 306.98 706.874 309.653" stroke="url(#paint13_linear_103_111)" stroke-miterlimit="10"/>
<path d="M39.8268 369.529C63.1524 352.453 92.2315 352.963 121.623 352.045C135.981 351.628 150.891 350.258 165.467 346.531C208.538 335.559 220.772 317.731 272.753 312.709C287.477 311.236 306.54 316.163 327.645 320.959C380.295 332.773 435.147 331.052 474.761 323.545C477.441 323.081 479.953 322.639 482.279 322.094C520.758 313.846 548.812 297.438 584.572 291.804C592.8 290.517 601.471 289.932 610.602 290.172C642.298 290.985 673.166 294.426 705.143 297.224" stroke="url(#paint14_linear_103_111)" stroke-miterlimit="10"/>
<path d="M38.0881 357.122C61.2629 340.186 90.3073 340.448 119.53 339.551C133.889 339.134 148.613 337.661 163.206 334.057C205.958 323.248 219.443 305.762 270.518 301.611C285.446 300.365 304.359 305.438 325.313 310.381C378.354 322.529 432.356 319.651 472.557 311.436C475.22 310.849 477.732 310.407 480.075 309.985C518.333 301.383 546.778 285.3 582.69 279.52C591.087 278.211 599.588 277.647 608.702 277.763C640.381 278.452 671.435 281.998 703.395 284.672" stroke="url(#paint15_linear_103_111)" stroke-miterlimit="10"/>
<path d="M36.3498 344.712C59.3563 327.792 88.2325 328.076 117.438 327.054C131.78 326.513 146.352 325.185 160.946 321.58C203.396 311.058 218.115 293.792 268.284 290.512C283.416 289.492 302.195 294.836 323.149 299.781C376.43 312.408 429.884 308.082 470.69 299.284C473.353 298.696 475.865 298.254 478.19 297.708C516.228 288.753 544.877 272.892 580.958 267.089C589.355 265.78 598.007 265.07 606.97 265.332C638.8 265.875 669.855 269.422 702.002 272.2" stroke="url(#paint16_linear_103_111)" stroke-miterlimit="10"/>
<path d="M34.612 332.293C57.6363 315.495 86.3085 315.552 115.346 314.551C129.519 314.031 144.092 312.703 158.686 309.097C200.834 298.864 216.804 281.943 266.032 279.286C281.368 278.493 300.013 284.108 320.816 289.199C374.319 302.18 427.26 296.654 468.484 287.17C471.147 286.582 473.642 286.015 476.136 285.449C513.784 276.161 542.974 260.483 579.055 254.678C587.452 253.369 596.105 252.659 605.219 252.776C637.032 253.195 668.104 256.867 700.42 259.624" stroke="url(#paint17_linear_103_111)" stroke-miterlimit="10"/>
<path d="M32.874 319.856C55.7297 303.079 84.3845 303.011 113.253 302.032C127.426 301.512 141.982 300.059 156.425 296.599C198.253 286.533 215.473 269.959 263.795 268.175C279.334 267.609 297.847 273.494 318.481 278.606C372.205 291.938 424.483 285.359 466.276 275.044C468.939 274.456 471.433 273.89 473.91 273.199C511.336 263.561 540.917 248.212 576.98 242.283C585.359 240.85 594.03 240.264 603.143 240.381C635.108 240.655 666.18 244.327 698.513 247.208" stroke="url(#paint18_linear_103_111)" stroke-miterlimit="10"/>
<path d="M31.1201 307.293C53.8247 290.662 82.4618 290.47 111.144 289.388C125.148 288.889 139.704 287.436 154.147 283.976C195.673 274.201 214.313 257.956 261.373 256.962C277.285 256.602 295.496 262.777 315.979 268.034C369.941 281.841 421.688 273.939 463.899 262.94C466.544 262.228 469.039 261.662 471.533 261.095C508.738 251.106 538.691 235.964 574.923 230.015C583.471 228.56 592.142 227.974 601.238 227.967C633.37 228.219 664.442 231.891 696.927 234.627" stroke="url(#paint19_linear_103_111)" stroke-miterlimit="10"/>
<path d="M29.3827 294.852C51.9362 278.367 80.3695 277.948 109.052 276.866C123.056 276.367 137.425 274.812 151.886 271.476C193.11 261.992 213 246.095 259.137 245.849C275.252 245.717 293.329 252.161 313.644 257.439C367.828 271.596 419.061 262.495 461.69 250.813C464.335 250.101 466.83 249.535 469.307 248.844C506.308 238.628 536.615 223.569 572.847 217.619C581.395 216.165 590.048 215.455 599.162 215.572C631.277 215.7 662.366 219.496 695.019 222.21" stroke="url(#paint20_linear_103_111)" stroke-miterlimit="10"/>
<path d="M27.6457 282.408C50.0304 265.946 78.4462 265.403 106.96 264.342C120.795 263.865 135.333 262.289 149.624 258.974C190.529 249.658 211.687 234.235 256.9 234.737C273.237 234.955 291.163 241.544 311.309 246.843C365.731 261.474 416.265 251.072 459.481 238.686C462.126 237.974 464.603 237.283 467.08 236.592C503.691 226.048 534.557 211.298 570.771 205.225C579.319 203.771 588.14 203.04 597.068 203.053C629.334 203.037 660.424 206.832 693.094 209.67" stroke="url(#paint21_linear_103_111)" stroke-miterlimit="10"/>
<path d="M25.9081 269.957C48.3103 253.621 76.5394 252.976 104.867 251.812C118.684 251.21 133.054 249.655 147.381 246.59C187.982 237.565 210.392 222.492 254.68 223.742C271.221 224.188 288.995 230.921 309.008 236.488C363.652 251.468 413.69 239.993 457.305 226.8C459.933 225.964 462.427 225.398 464.886 224.583C501.276 213.688 532.346 199.168 568.897 193.053C577.613 191.578 586.266 190.868 595.344 190.737C627.593 190.596 658.869 194.493 691.708 197.31" stroke="url(#paint22_linear_103_111)" stroke-miterlimit="10"/>
<path d="M24.1551 257.391C46.3885 241.078 74.4314 240.329 102.759 239.166C116.576 238.565 130.777 237.031 145.103 233.966C185.403 225.233 209.081 210.633 252.427 212.507C269.172 213.179 286.813 220.181 306.656 225.769C361.539 241.222 411.046 228.426 455.079 214.55C457.539 213.736 460.184 213.024 462.643 212.209C498.811 200.965 530.27 186.776 566.804 180.538C575.52 179.063 584.342 178.332 593.251 178.222C625.651 177.936 656.926 181.833 689.765 184.649" stroke="url(#paint23_linear_103_111)" stroke-miterlimit="10"/>
<path d="M22.4181 244.94C44.5003 228.776 72.5254 227.903 100.666 226.637C114.315 226.057 128.515 224.524 142.842 221.459C182.821 212.894 207.785 198.894 250.19 201.39C267.155 202.413 284.645 209.559 304.338 215.291C359.459 231.216 408.452 217.224 452.886 202.543C455.345 201.729 457.991 201.017 460.45 200.202C496.396 188.609 528.227 174.629 564.761 168.392C573.477 166.917 582.281 166.062 591.359 165.931C623.909 165.499 655.033 169.541 688.04 172.335" stroke="url(#paint24_linear_103_111)" stroke-miterlimit="10"/>
<path d="M20.6822 232.494C42.6131 216.478 70.603 215.357 98.575 214.113C112.224 213.533 126.406 211.875 140.582 208.956C180.427 200.662 206.473 187.033 247.954 190.276C265.123 191.527 282.479 198.94 302.003 204.692C357.345 220.966 405.657 205.799 450.863 190.518C453.322 189.704 455.95 188.868 458.409 188.054C494.133 176.111 526.337 162.339 562.87 156.103C571.586 154.628 580.39 153.774 589.468 153.642C622.001 153.086 653.293 157.106 686.486 160.003" stroke="url(#paint25_linear_103_111)" stroke-miterlimit="10"/>
<path d="M18.9467 220.043C40.7087 204.052 68.6808 202.807 96.484 201.584C109.964 201.025 124.146 199.368 138.321 196.45C177.865 188.448 205.009 175.315 245.717 179.159C262.939 180.781 280.313 188.317 299.685 194.213C355.266 210.958 403.064 194.597 448.67 178.511C451.112 177.573 453.74 176.737 456.199 175.923C491.719 163.757 524.295 150.193 560.978 143.813C569.863 142.317 578.667 141.463 587.559 141.228C620.242 140.527 651.552 144.67 684.745 147.566" stroke="url(#paint26_linear_103_111)" stroke-miterlimit="10"/>
<path d="M17.2102 207.597C38.9897 191.733 66.6064 190.407 94.3917 189.06C107.872 188.501 121.868 186.741 136.061 183.947C175.284 176.114 203.714 163.579 243.48 168.046C260.923 170.018 278.146 177.698 297.35 183.614C353.151 200.706 400.453 183.274 446.459 166.384C448.901 165.446 451.529 164.611 453.97 163.673C489.1 151.178 522.217 137.801 558.9 131.423C567.785 129.927 576.589 129.073 585.649 128.818C618.314 127.993 649.642 132.259 682.985 135.009" stroke="url(#paint27_linear_103_111)" stroke-miterlimit="10"/>
<path d="M15.4579 195.029C37.0685 179.189 64.6675 177.739 92.284 176.413C105.746 175.731 119.591 174.117 133.784 171.323C172.705 163.781 202.421 151.844 241.228 156.809C258.892 159.132 275.795 166.977 294.998 172.892C351.038 190.455 397.81 171.705 444.233 154.134C446.675 153.196 449.285 152.237 451.744 151.424C486.652 138.581 519.99 125.558 556.824 119.035C565.691 117.416 574.663 116.54 583.555 116.306C616.371 115.336 647.698 119.601 681.228 122.454" stroke="url(#paint28_linear_103_111)" stroke-miterlimit="10"/>
<path d="M13.7232 182.58C35.1824 166.889 62.746 165.192 90.1935 163.888C103.487 163.226 117.483 161.468 131.524 158.82C170.125 151.447 200.958 140.129 238.823 145.716C256.691 148.264 273.46 156.376 292.512 162.434C348.622 180.489 395.048 160.525 441.871 142.152C444.313 141.214 446.923 140.255 449.365 139.318C484.051 126.128 517.761 113.313 554.594 106.793C563.461 105.174 572.434 104.299 581.325 104.064C614.274 102.826 645.636 107.337 679.166 110.189" stroke="url(#paint29_linear_103_111)" stroke-miterlimit="10"/>
<path d="M11.9879 170.132C33.2959 154.59 60.6731 152.791 88.1028 151.363C101.396 150.702 115.223 148.964 129.264 146.317C167.563 139.236 199.495 128.413 236.586 134.6C254.507 137.52 271.293 145.753 290.177 151.831C346.525 170.356 392.438 149.2 439.661 130.024C442.085 128.963 444.695 128.004 447.136 127.067C481.619 113.654 515.683 100.923 552.685 94.3829C561.72 92.7432 570.524 91.8895 579.567 91.5102C612.498 90.1477 644.028 94.6369 677.574 97.6116" stroke="url(#paint30_linear_103_111)" stroke-miterlimit="10"/>
<path d="M10.253 157.684C31.5607 142.146 58.7515 140.244 86.0123 138.837C99.1368 138.198 112.963 136.461 127.022 133.939C165.018 127.148 198.049 116.821 234.35 123.484C252.51 126.877 269.127 135.13 287.86 141.351C344.429 160.221 389.846 137.998 437.469 118.02C439.892 116.959 442.502 116.001 444.926 114.94C479.186 101.179 513.64 88.7814 550.624 82.1184C559.66 80.4792 568.631 79.6044 577.505 79.2464C610.605 77.863 641.966 82.3722 675.664 85.2009" stroke="url(#paint31_linear_103_111)" stroke-miterlimit="10"/>
<path d="M8.51806 145.238C29.6744 129.849 56.8294 127.7 83.9212 126.315C97.0456 125.675 110.855 123.815 124.763 121.438C162.438 114.816 196.604 105.231 232.114 112.369C250.494 116.112 266.961 124.507 285.525 130.749C342.332 150.088 387.235 126.674 435.258 105.894C437.682 104.834 440.274 103.752 442.715 102.815C476.754 88.7074 511.58 76.5182 548.563 69.8568C557.599 68.218 566.553 67.2196 575.595 66.8405C608.677 65.3335 640.206 69.8203 674.089 72.7509" stroke="url(#paint32_linear_103_111)" stroke-miterlimit="10"/>
<path d="M6.76792 132.672C27.7553 117.309 54.91 115.16 81.8152 113.673C94.9394 113.033 108.58 111.195 122.487 108.819C159.843 102.365 195.125 93.3985 229.862 101.136C248.295 105.249 264.779 113.765 283.191 120.149C340.237 139.956 384.795 115.333 433.048 93.7742C435.472 92.7138 437.896 91.6534 440.489 90.5718C474.323 76.2423 509.52 64.262 546.486 57.4789C555.69 55.8193 564.644 54.8213 573.5 54.3396C606.732 52.688 638.279 57.297 672.161 60.2266" stroke="url(#paint33_linear_103_111)" stroke-miterlimit="10"/>
<path d="M5.03363 120.229C25.8696 105.015 52.8202 102.64 79.7251 101.153C92.663 100.411 106.303 98.5732 120.228 96.3216C157.281 90.1591 193.68 81.8108 227.626 90.0229C246.112 94.5061 262.613 103.144 280.856 109.547C337.972 129.844 382.184 104.011 430.838 81.6515C433.262 80.5914 435.668 79.4074 438.26 78.3261C471.873 63.6502 507.274 51.8997 544.576 45.076C553.779 43.4169 562.733 42.419 571.589 41.9374C604.972 40.1412 636.367 44.8938 670.418 47.8013" stroke="url(#paint34_linear_103_111)" stroke-miterlimit="10"/>
<path d="M3.30119 107.786C23.9858 92.7214 50.9186 90.2234 77.6369 88.6341C90.5746 87.8923 104.046 86.0761 117.97 83.825C154.721 77.954 192.05 70.1209 225.392 78.9101C244.116 83.8658 260.449 92.5224 278.523 98.945C335.877 119.709 379.576 92.6883 428.798 69.5083C431.204 68.3247 433.628 67.2649 436.202 66.0601C469.61 51.1621 505.365 39.4962 542.667 32.6744C551.87 31.0157 560.825 30.018 569.831 29.3917C603.196 27.4721 634.76 32.2022 668.979 35.0876" stroke="url(#paint35_linear_103_111)" stroke-miterlimit="10"/>
<path d="M1.57025 95.3456C22.2544 80.2869 49.0005 77.6875 75.5497 76.1198C122.374 73.5197 178.252 54.9277 222.989 67.8233C241.766 73.1479 258.116 81.9244 276.039 88.4892C333.631 109.718 376.816 81.5136 426.437 57.5373C461.604 40.5361 500.323 27.9993 540.455 20.5732C584.598 12.392 623.665 19.2003 666.932 22.9637" stroke="url(#paint36_linear_103_111)" stroke-miterlimit="10"/>
<defs>
<linearGradient id="paint0_linear_103_111" x1="397.68" y1="513.619" x2="390.48" y2="456.172" gradientUnits="userSpaceOnUse">
<stop stop-color="white"/>
<stop offset="1"/>
</linearGradient>
<linearGradient id="paint1_linear_103_111" x1="395.942" y1="501.178" x2="388.91" y2="445.087" gradientUnits="userSpaceOnUse">
<stop stop-color="white"/>
<stop offset="1"/>
</linearGradient>
<linearGradient id="paint2_linear_103_111" x1="394.201" y1="488.733" x2="387.335" y2="433.98" gradientUnits="userSpaceOnUse">
<stop stop-color="white"/>
<stop offset="1"/>
</linearGradient>
<linearGradient id="paint3_linear_103_111" x1="392.462" y1="476.291" x2="385.762" y2="422.871" gradientUnits="userSpaceOnUse">
<stop stop-color="white"/>
<stop offset="1"/>
</linearGradient>
<linearGradient id="paint4_linear_103_111" x1="390.724" y1="463.85" x2="384.188" y2="411.749" gradientUnits="userSpaceOnUse">
<stop stop-color="white"/>
<stop offset="1"/>
</linearGradient>
<linearGradient id="paint5_linear_103_111" x1="388.983" y1="451.404" x2="382.611" y2="400.616" gradientUnits="userSpaceOnUse">
<stop stop-color="white"/>
<stop offset="1"/>
</linearGradient>
<linearGradient id="paint6_linear_103_111" x1="387.245" y1="438.962" x2="381.034" y2="389.474" gradientUnits="userSpaceOnUse">
<stop stop-color="white"/>
<stop offset="1"/>
</linearGradient>
<linearGradient id="paint7_linear_103_111" x1="385.505" y1="426.513" x2="379.455" y2="378.319" gradientUnits="userSpaceOnUse">
<stop stop-color="white"/>
<stop offset="1"/>
</linearGradient>
<linearGradient id="paint8_linear_103_111" x1="383.766" y1="414.071" x2="377.875" y2="367.158" gradientUnits="userSpaceOnUse">
<stop stop-color="white"/>
<stop offset="1"/>
</linearGradient>
<linearGradient id="paint9_linear_103_111" x1="382.028" y1="401.631" x2="376.296" y2="355.99" gradientUnits="userSpaceOnUse">
<stop stop-color="white"/>
<stop offset="1"/>
</linearGradient>
<linearGradient id="paint10_linear_103_111" x1="380.289" y1="389.184" x2="374.714" y2="344.808" gradientUnits="userSpaceOnUse">
<stop stop-color="white"/>
<stop offset="1"/>
</linearGradient>
<linearGradient id="paint11_linear_103_111" x1="378.55" y1="376.742" x2="373.131" y2="333.619" gradientUnits="userSpaceOnUse">
<stop stop-color="white"/>
<stop offset="1"/>
</linearGradient>
<linearGradient id="paint12_linear_103_111" x1="376.81" y1="364.291" x2="371.546" y2="322.413" gradientUnits="userSpaceOnUse">
<stop stop-color="white"/>
<stop offset="1"/>
</linearGradient>
<linearGradient id="paint13_linear_103_111" x1="375.071" y1="351.848" x2="369.959" y2="311.188" gradientUnits="userSpaceOnUse">
<stop stop-color="white"/>
<stop offset="1"/>
</linearGradient>
<linearGradient id="paint14_linear_103_111" x1="373.333" y1="339.403" x2="368.366" y2="299.912" gradientUnits="userSpaceOnUse">
<stop stop-color="white"/>
<stop offset="1"/>
</linearGradient>
<linearGradient id="paint15_linear_103_111" x1="371.595" y1="326.962" x2="366.768" y2="288.592" gradientUnits="userSpaceOnUse">
<stop stop-color="white"/>
<stop offset="1"/>
</linearGradient>
<linearGradient id="paint16_linear_103_111" x1="369.856" y1="314.518" x2="365.165" y2="277.23" gradientUnits="userSpaceOnUse">
<stop stop-color="white"/>
<stop offset="1"/>
</linearGradient>
<linearGradient id="paint17_linear_103_111" x1="368.177" y1="302.491" x2="363.564" y2="265.83" gradientUnits="userSpaceOnUse">
<stop stop-color="white"/>
<stop offset="1"/>
</linearGradient>
<linearGradient id="paint18_linear_103_111" x1="366.581" y1="291.052" x2="361.967" y2="254.389" gradientUnits="userSpaceOnUse">
<stop stop-color="white"/>
<stop offset="1"/>
</linearGradient>
<linearGradient id="paint19_linear_103_111" x1="364.999" y1="279.714" x2="360.369" y2="242.919" gradientUnits="userSpaceOnUse">
<stop stop-color="white"/>
<stop offset="1"/>
</linearGradient>
<linearGradient id="paint20_linear_103_111" x1="363.43" y1="268.466" x2="358.768" y2="231.419" gradientUnits="userSpaceOnUse">
<stop stop-color="white"/>
<stop offset="1"/>
</linearGradient>
<linearGradient id="paint21_linear_103_111" x1="361.872" y1="257.299" x2="357.165" y2="219.89" gradientUnits="userSpaceOnUse">
<stop stop-color="white"/>
<stop offset="1"/>
</linearGradient>
<linearGradient id="paint22_linear_103_111" x1="360.323" y1="246.194" x2="355.56" y2="208.33" gradientUnits="userSpaceOnUse">
<stop stop-color="white"/>
<stop offset="1"/>
</linearGradient>
<linearGradient id="paint23_linear_103_111" x1="358.785" y1="235.159" x2="353.953" y2="196.748" gradientUnits="userSpaceOnUse">
<stop stop-color="white"/>
<stop offset="1"/>
</linearGradient>
<linearGradient id="paint24_linear_103_111" x1="357.252" y1="224.17" x2="352.343" y2="185.134" gradientUnits="userSpaceOnUse">
<stop stop-color="white"/>
<stop offset="1"/>
</linearGradient>
<linearGradient id="paint25_linear_103_111" x1="355.727" y1="213.23" x2="350.73" y2="173.493" gradientUnits="userSpaceOnUse">
<stop stop-color="white"/>
<stop offset="1"/>
</linearGradient>
<linearGradient id="paint26_linear_103_111" x1="354.207" y1="202.325" x2="349.114" y2="161.817" gradientUnits="userSpaceOnUse">
<stop stop-color="white"/>
<stop offset="1"/>
</linearGradient>
<linearGradient id="paint27_linear_103_111" x1="352.692" y1="191.459" x2="347.494" y2="150.11" gradientUnits="userSpaceOnUse">
<stop stop-color="white"/>
<stop offset="1"/>
</linearGradient>
<linearGradient id="paint28_linear_103_111" x1="351.182" y1="180.624" x2="345.871" y2="138.368" gradientUnits="userSpaceOnUse">
<stop stop-color="white"/>
<stop offset="1"/>
</linearGradient>
<linearGradient id="paint29_linear_103_111" x1="349.675" y1="169.812" x2="344.244" y2="126.584" gradientUnits="userSpaceOnUse">
<stop stop-color="white"/>
<stop offset="1"/>
</linearGradient>
<linearGradient id="paint30_linear_103_111" x1="348.172" y1="159.022" x2="342.61" y2="114.755" gradientUnits="userSpaceOnUse">
<stop stop-color="white"/>
<stop offset="1"/>
</linearGradient>
<linearGradient id="paint31_linear_103_111" x1="346.671" y1="148.253" x2="340.972" y2="102.877" gradientUnits="userSpaceOnUse">
<stop stop-color="white"/>
<stop offset="1"/>
</linearGradient>
<linearGradient id="paint32_linear_103_111" x1="345.173" y1="137.504" x2="339.324" y2="90.9289" gradientUnits="userSpaceOnUse">
<stop stop-color="white"/>
<stop offset="1"/>
</linearGradient>
<linearGradient id="paint33_linear_103_111" x1="343.679" y1="126.773" x2="337.675" y2="78.9514" gradientUnits="userSpaceOnUse">
<stop stop-color="white"/>
<stop offset="1"/>
</linearGradient>
<linearGradient id="paint34_linear_103_111" x1="342.185" y1="116.056" x2="336.017" y2="66.9093" gradientUnits="userSpaceOnUse">
<stop stop-color="white"/>
<stop offset="1"/>
</linearGradient>
<linearGradient id="paint35_linear_103_111" x1="340.699" y1="105.378" x2="334.346" y2="54.7469" gradientUnits="userSpaceOnUse">
<stop stop-color="#E6E6E6"/>
<stop offset="1"/>
</linearGradient>
<linearGradient id="paint36_linear_103_111" x1="339.207" y1="94.6606" x2="332.631" y2="42.2372" gradientUnits="userSpaceOnUse">
<stop stop-color="#D5D5D5"/>
<stop offset="1"/>
</linearGradient>
</defs>
</svg>
