<svg width="577" height="548" viewBox="0 0 577 548" fill="none" xmlns="http://www.w3.org/2000/svg">
<path d="M-21.7822 535.031C11.5538 508.223 56.574 527.871 97.5138 514.449C139.612 500.504 136.444 482.538 193.16 462.993C229.003 450.585 343.218 491.888 381.578 489.604C427.714 486.726 447.314 457.611 493.478 462.526C521.026 465.495 548.422 468.482 575.969 471.45" stroke="url(#paint0_linear_103_73)" stroke-miterlimit="10"/>
<path d="M-23.5206 522.624C-1.39722 504.759 26.1155 507.481 53.9814 507.265C67.8387 507.167 81.7417 506.308 95.2876 501.845C137.27 488.163 134.86 470.098 190.977 451.754C202.17 448.089 220.431 449.704 241.432 453.241C285.979 460.876 342.461 476.579 372.471 477.353C374.947 477.42 377.253 477.383 379.391 477.242C417.076 474.539 437.387 454.763 468.815 450.327C475.763 449.332 483.289 449.145 491.578 449.995C519.108 452.84 546.673 455.933 574.221 458.902" stroke="url(#paint1_linear_103_73)" stroke-miterlimit="10"/>
<path d="M-25.2613 510.212C-3.27156 492.485 24.0723 495.103 51.9211 494.764C65.6271 494.684 79.531 493.825 93.0945 489.485C134.81 476.084 133.29 457.776 188.826 440.758C200.054 437.339 218.334 439.078 239.201 442.758C283.953 450.748 339.94 465.133 370.334 465.356C372.81 465.423 375.117 465.386 377.237 465.121C414.701 461.942 435.367 442.493 466.796 438.056C473.744 437.061 481.253 436.75 489.542 437.6C517.206 440.304 544.772 443.397 572.337 446.491" stroke="url(#paint2_linear_103_73)" stroke-miterlimit="10"/>
<path d="M-26.9996 497.802C-5.00959 480.071 22.1657 482.585 49.8634 482.264C63.5695 482.185 77.3044 481.22 90.8857 477.003C132.317 463.761 131.723 445.458 186.643 429.52C198.04 426.205 216.221 428.335 236.955 432.158C282.063 440.483 337.403 453.568 368.182 453.239C370.64 453.183 372.946 453.146 375.084 453.004C412.193 449.491 433.215 430.371 464.93 425.771C471.878 424.775 479.387 424.465 487.676 425.315C515.323 427.896 542.907 431.114 570.758 434.046" stroke="url(#paint3_linear_103_73)" stroke-miterlimit="10"/>
<path d="M-28.7565 485.271C-6.90003 467.677 20.2406 469.944 47.8048 469.766C61.3422 469.582 75.2461 468.722 88.6762 464.522C129.84 451.561 130.154 433.139 184.476 418.405C196.06 415.317 214.108 417.59 234.708 421.557C280.021 430.236 334.865 442.002 366.029 441.122C368.487 441.066 370.794 441.029 372.914 440.763C409.802 436.773 431.18 417.98 462.895 413.379C469.995 412.364 477.503 412.054 485.775 412.78C513.556 415.219 541.14 418.438 569.01 421.495" stroke="url(#paint4_linear_103_73)" stroke-miterlimit="10"/>
<path d="M-30.4958 472.857C-8.77294 455.402 18.3505 457.546 45.746 457.263C59.2836 457.078 73.0186 456.114 86.4663 452.036C127.363 439.358 128.604 420.941 182.309 407.288C194.062 404.305 212.011 406.968 232.477 411.079C277.995 420.112 332.344 430.558 363.893 429.125C366.351 429.069 368.64 428.909 370.76 428.643C407.444 424.3 429.178 405.836 460.876 401.11C467.976 400.095 475.484 399.784 483.756 400.511C511.672 402.807 539.274 406.151 567.143 409.209" stroke="url(#paint5_linear_103_73)" stroke-miterlimit="10"/>
<path d="M-32.2351 460.449C-10.6634 443.007 16.2916 445.047 43.6875 444.764C57.2252 444.58 70.8088 443.634 84.2567 439.555C124.868 427.034 127.187 408.603 180.143 396.173C191.931 393.436 209.915 396.348 230.23 400.48C275.953 409.868 329.807 418.993 361.74 417.008C364.18 416.828 366.47 416.668 368.59 416.402C405.07 411.705 427.143 393.445 458.841 388.717C465.941 387.702 473.601 387.372 481.856 387.975C509.754 390.149 537.374 393.617 565.546 396.638" stroke="url(#paint6_linear_103_73)" stroke-miterlimit="10"/>
<path d="M-33.9738 448.032C-12.3844 430.71 14.384 432.522 41.6288 432.258C55.0152 432.092 68.751 431.127 82.0476 427.066C122.409 414.952 125.636 396.403 177.976 385.055C189.933 382.423 207.801 385.602 228.001 390.001C273.927 399.744 327.152 407.69 359.772 405.114C362.213 404.934 364.502 404.773 366.623 404.508C402.882 399.334 425.31 381.402 457.16 376.655C464.412 375.62 471.903 375.185 480.175 375.913C508.225 378.068 535.827 381.413 564 384.435" stroke="url(#paint7_linear_103_73)" stroke-miterlimit="10"/>
<path d="M-35.7131 435.624C-14.2748 418.316 12.494 420.128 39.5701 419.759C52.9568 419.593 66.5236 418.523 79.8379 414.585C119.915 402.628 124.238 384.188 175.809 373.942C187.954 371.537 205.705 374.984 225.753 379.403C271.885 389.502 324.615 396.126 357.619 392.997C360.06 392.817 362.332 392.533 364.452 392.267C400.356 386.758 423.291 369.135 455.124 364.263C462.358 363.104 469.867 362.792 478.122 363.396C506.155 365.428 533.927 368.879 562.101 371.901" stroke="url(#paint8_linear_103_73)" stroke-miterlimit="10"/>
<path d="M-37.4685 423.095C-16.1639 405.924 10.4188 407.508 37.4954 407.139C50.7307 406.992 64.2976 405.921 77.6121 401.982C117.422 390.308 122.822 371.853 173.475 362.727C185.806 360.55 203.442 364.265 223.339 368.704C269.844 379.264 321.91 384.461 355.299 380.778C357.722 380.474 360.011 380.313 362.114 379.924C397.815 374.06 421.088 356.642 452.921 351.767C460.156 350.608 467.816 350.278 476.053 350.758C504.221 352.648 531.993 356.1 560.184 359.247" stroke="url(#paint9_linear_103_73)" stroke-miterlimit="10"/>
<path d="M-39.2073 410.681C-18.0363 393.649 8.52924 395.109 35.437 394.635C48.655 394.364 62.0704 393.312 75.4026 389.496C114.945 378.104 121.289 359.778 171.308 351.612C183.808 349.54 201.346 353.646 221.109 358.23C267.819 369.145 319.255 373.161 353.163 368.782C355.586 368.478 357.858 368.193 359.96 367.803C395.457 361.585 418.935 344.515 450.902 339.497C458.137 338.337 465.797 338.007 474.035 338.487C502.185 340.253 529.975 343.83 558.47 346.94" stroke="url(#paint10_linear_103_73)" stroke-miterlimit="10"/>
<path d="M-40.9466 398.274C-19.9268 381.254 6.62165 382.591 33.3784 382.135C46.5965 381.865 60.0119 380.812 73.1929 377.014C112.468 365.904 119.908 347.687 169.141 340.5C181.828 338.656 199.232 342.907 218.862 347.635C265.777 358.906 316.735 361.722 351.009 356.665C353.433 356.361 355.705 356.076 357.807 355.686C393.101 349.113 416.917 332.247 449.036 327.208C456.422 326.029 464.065 325.575 472.151 326.074C500.436 327.698 528.226 331.276 556.721 334.387" stroke="url(#paint11_linear_103_73)" stroke-miterlimit="10"/>
<path d="M-42.6858 385.856C-21.6482 368.955 4.71364 370.064 31.3192 369.627C44.386 369.375 57.8022 368.323 71.0009 364.647C110.143 353.677 118.695 335.694 166.992 329.507C179.866 327.891 197.153 332.41 216.649 337.282C263.768 348.909 314.231 350.4 348.89 344.788C351.296 344.36 353.568 344.075 355.671 343.685C390.609 336.776 414.915 320.097 447.035 315.056C454.421 313.877 462.064 313.423 470.302 313.903C498.72 315.384 526.528 319.087 555.024 322.199" stroke="url(#paint12_linear_103_73)" stroke-miterlimit="10"/>
<path d="M-44.4252 373.448C-23.5387 356.561 2.67212 357.689 29.2605 357.128C42.3275 356.876 55.5747 355.718 68.7911 352.165C107.666 341.478 117.331 323.728 164.825 318.396C177.868 316.885 195.209 321.777 214.402 326.689C261.743 338.797 311.559 338.981 346.737 332.672C349.143 332.243 351.397 331.834 353.5 331.444C388.217 324.056 412.896 307.829 444.999 302.663C452.385 301.483 460.028 301.028 468.249 301.385C496.65 302.742 524.476 306.571 553.275 309.646" stroke="url(#paint13_linear_103_73)" stroke-miterlimit="10"/>
<path d="M-46.18 360.912C-25.4273 344.164 0.748767 345.044 27.186 344.502C40.1016 344.269 53.5003 343.092 66.5654 339.557C105.172 329.153 115.933 311.513 162.642 307.163C175.872 305.881 193.096 311.041 212.155 316.098C259.702 328.562 309.04 327.544 344.585 320.555C346.99 320.126 349.245 319.717 351.33 319.203C385.843 311.459 410.861 295.439 442.964 290.271C450.35 289.091 458.145 288.617 466.365 288.974C494.901 290.189 522.727 294.018 551.544 297.218" stroke="url(#paint14_linear_103_73)" stroke-miterlimit="10"/>
<path d="M-47.9184 348.506C-27.2993 331.895 -1.15793 332.527 25.1281 332.004C38.044 331.771 51.2736 330.488 64.3564 327.076C102.679 316.831 114.57 299.549 160.476 296.056C173.892 295.003 190.983 300.308 209.909 305.509C257.811 318.312 306.369 316.128 342.432 308.44C344.82 307.888 347.075 307.478 349.177 307.088C383.487 298.989 408.86 283.297 441.098 277.984C448.636 276.785 456.279 276.33 464.482 276.563C493 277.654 520.996 281.589 549.795 284.666" stroke="url(#paint15_linear_103_73)" stroke-miterlimit="10"/>
<path d="M-49.6557 336.094C-29.1879 319.498 -3.19761 320.149 23.0712 319.502C35.9696 319.145 49.0653 318.005 62.1483 314.592C100.203 304.63 113.208 287.582 158.311 284.947C171.914 284.123 188.888 289.697 207.814 294.899C255.939 308.183 303.983 304.547 340.582 296.285C342.971 295.732 345.225 295.322 347.31 294.807C381.416 286.353 406.977 270.886 439.366 265.553C446.904 264.353 454.681 263.755 462.75 264.13C491.402 265.079 519.399 269.015 548.367 272.198" stroke="url(#paint16_linear_103_73)" stroke-miterlimit="10"/>
<path d="M-51.393 323.677C-30.9075 307.202 -5.10389 307.624 21.0136 306.995C33.7607 306.657 46.8571 305.517 59.9401 302.103C97.7273 292.426 111.862 275.738 156.127 273.714C169.917 273.118 186.775 278.961 205.567 284.308C253.896 297.947 301.462 293.107 338.428 284.165C340.817 283.612 343.054 283.078 345.291 282.544C379.041 273.754 405.091 258.475 437.48 253.141C445.018 251.941 452.795 251.342 460.998 251.575C489.634 252.399 517.648 256.461 546.768 259.625" stroke="url(#paint17_linear_103_73)" stroke-miterlimit="10"/>
<path d="M-53.1307 311.239C-32.7967 294.783 -7.01058 295.081 18.9555 294.472C31.7025 294.133 44.7812 292.869 57.7304 289.599C95.2321 280.084 110.498 263.76 153.959 262.594C167.935 262.228 184.677 268.338 203.318 273.704C251.851 287.697 298.805 281.796 336.272 272.033C338.66 271.48 340.897 270.946 343.116 270.288C376.662 261.144 403.068 246.2 435.439 240.742C442.96 239.417 450.755 238.943 458.958 239.176C487.727 239.857 515.741 243.919 544.879 247.207" stroke="url(#paint18_linear_103_73)" stroke-miterlimit="10"/>
<path d="M-54.8844 298.676C-34.6843 282.364 -8.91575 282.538 16.8812 281.823C29.4768 281.504 42.5553 280.24 55.5044 276.97C92.7383 267.742 109.286 251.762 151.623 251.37C165.937 251.214 182.411 257.61 200.918 263.119C249.673 277.589 296.131 270.361 333.964 259.92C336.335 259.243 338.572 258.709 340.808 258.176C374.15 248.679 400.894 233.945 433.417 228.468C441.089 227.125 448.884 226.651 457.069 226.76C485.99 227.422 514.004 231.483 543.276 234.628" stroke="url(#paint19_linear_103_73)" stroke-miterlimit="10"/>
<path d="M-56.6216 286.235C-36.5554 270.067 -10.9734 270.011 14.8235 269.297C27.4191 268.978 40.3284 267.608 53.295 264.462C90.2611 255.521 107.939 239.906 149.455 240.249C163.956 240.322 180.314 246.985 198.669 252.513C247.628 267.335 293.607 258.904 331.807 247.786C334.177 247.109 336.414 246.576 338.634 245.918C371.789 236.192 398.853 221.545 431.376 216.069C439.048 214.726 446.825 214.127 455.028 214.36C483.931 214.898 511.963 219.083 541.386 222.209" stroke="url(#paint20_linear_103_73)" stroke-miterlimit="10"/>
<path d="M-58.3588 273.792C-38.4442 257.644 -12.8797 257.465 12.7657 256.769C25.2097 256.469 38.2703 255.081 51.0854 251.954C87.7659 243.176 106.592 228.05 147.287 229.128C161.992 229.554 178.216 236.36 196.419 241.906C245.6 257.205 290.931 247.466 329.649 235.652C332.02 234.975 334.239 234.317 336.458 233.66C369.258 223.6 396.829 209.27 429.334 203.67C437.006 202.327 444.935 201.71 452.969 201.837C482.006 202.232 510.037 206.417 539.478 209.667" stroke="url(#paint21_linear_103_73)" stroke-miterlimit="10"/>
<path d="M-60.096 261.34C-40.1639 245.319 -14.7689 245.035 10.7073 244.234C23.1337 243.81 36.0434 242.441 48.8936 239.563C85.3061 231.073 105.262 216.312 145.136 218.124C160.027 218.78 176.117 225.728 194.204 231.54C243.589 247.19 288.459 236.374 327.526 223.76C329.879 222.959 332.115 222.425 334.317 221.643C366.912 211.232 394.67 197.134 427.478 191.496C435.301 190.134 443.078 189.536 451.246 189.521C480.265 189.791 508.466 194.08 538.058 197.311" stroke="url(#paint22_linear_103_73)" stroke-miterlimit="10"/>
<path d="M-61.8496 248.774C-42.0691 232.774 -16.8432 232.384 8.63293 231.584C21.0593 231.16 33.8173 229.81 46.6674 226.932C82.8119 218.729 103.916 204.458 142.951 206.88C158.029 207.765 174.002 214.979 191.938 220.81C241.544 236.936 285.918 224.793 325.351 211.504C327.552 210.722 329.923 210.045 332.125 209.263C364.516 198.5 392.629 184.737 425.419 178.976C433.242 177.615 441.171 176.998 449.188 177.001C478.34 177.128 506.54 181.417 536.132 184.647" stroke="url(#paint23_linear_103_73)" stroke-miterlimit="10"/>
<path d="M-63.5863 236.323C-43.9398 220.47 -18.7315 219.956 6.5754 219.051C18.8502 218.646 31.608 217.296 44.458 214.419C80.3169 206.379 102.586 192.722 140.782 195.755C156.064 196.992 171.904 204.348 189.706 210.321C239.533 226.921 283.428 213.578 323.209 199.49C325.411 198.708 327.782 198.031 329.984 197.25C362.17 186.135 390.621 172.585 423.411 166.826C431.234 165.464 439.145 164.723 447.313 164.708C476.6 164.692 504.666 169.123 534.409 172.333" stroke="url(#paint24_linear_103_73)" stroke-miterlimit="10"/>
<path d="M-65.3223 223.878C-45.8098 208.169 -20.6368 207.408 4.51851 206.522C16.7932 206.117 29.5332 204.643 42.2492 201.91C77.9915 194.139 101.24 180.866 138.615 184.632C154.083 186.099 169.806 193.721 187.456 199.712C237.487 216.662 280.752 202.138 321.221 187.46C323.422 186.679 325.776 185.878 327.977 185.096C359.96 173.631 388.748 160.293 421.538 154.534C429.361 153.173 437.272 152.432 445.44 152.417C474.709 152.277 502.926 156.688 532.838 160.003" stroke="url(#paint25_linear_103_73)" stroke-miterlimit="10"/>
<path d="M-67.0584 211.427C-47.6975 195.741 -22.5422 194.855 2.46144 193.988C14.5846 193.602 27.3243 192.129 40.0402 189.397C75.5144 181.913 99.7591 169.149 136.447 173.506C151.968 175.345 167.708 183.089 185.224 189.222C235.476 206.645 278.262 190.922 319.08 175.446C321.264 174.541 323.617 173.741 325.818 172.959C357.614 161.267 386.74 148.143 419.664 142.242C427.638 140.862 435.549 140.121 443.548 140.001C472.95 139.718 501.185 144.252 531.096 147.566" stroke="url(#paint26_linear_103_73)" stroke-miterlimit="10"/>
<path d="M-68.7944 198.98C-49.4161 183.422 -24.5817 182.45 0.404103 181.46C12.5272 181.074 25.0984 179.496 37.8317 176.888C73.0203 169.568 98.4301 157.418 134.279 162.384C150.004 164.575 165.61 172.461 182.975 178.611C233.43 196.384 275.755 179.586 316.921 163.312C319.105 162.407 321.458 161.607 323.642 160.702C355.082 148.678 384.698 135.747 417.621 129.847C425.596 128.468 433.507 127.727 441.657 127.588C471.041 127.181 499.293 131.839 529.338 135.009" stroke="url(#paint27_linear_103_73)" stroke-miterlimit="10"/>
<path d="M-70.5468 186.412C-51.3201 170.876 -26.5034 169.78 -1.66917 168.809C10.4362 168.299 22.8733 166.865 35.6066 164.257C70.527 157.225 97.1024 145.687 132.095 151.139C148.024 153.682 163.344 161.728 180.709 167.878C231.386 186.125 273.215 168.004 314.747 151.056C316.931 150.151 319.266 149.227 321.468 148.446C352.703 136.072 382.523 123.496 415.58 117.455C423.537 115.952 431.599 115.192 439.597 115.072C469.115 114.522 497.367 119.179 527.581 122.453" stroke="url(#paint28_linear_103_73)" stroke-miterlimit="10"/>
<path d="M-72.282 173.963C-53.1895 158.574 -28.4081 157.231 -3.72561 156.279C8.22821 155.788 20.7989 154.211 33.3981 151.747C68.0328 144.879 95.622 133.974 129.775 140.034C145.891 142.806 161.095 151.117 178.325 157.407C229.072 176.145 270.573 156.809 312.454 139.065C314.638 138.16 316.973 137.236 319.157 136.332C350.188 123.608 380.346 111.246 413.402 105.206C421.359 103.703 429.421 102.944 437.42 102.823C467.054 102.007 495.34 106.91 525.554 110.184" stroke="url(#paint29_linear_103_73)" stroke-miterlimit="10"/>
<path d="M-74.0172 161.515C-55.0588 146.273 -30.4465 144.825 -5.78188 143.749C6.17182 143.259 18.5908 141.701 31.1899 139.238C65.5564 132.657 94.1417 122.261 127.608 128.909C143.776 132.052 158.997 140.485 176.076 146.793C227.044 166.003 268.066 145.471 310.295 126.931C312.462 125.902 314.797 124.979 316.981 124.074C347.825 111.124 378.303 98.851 411.51 92.7938C419.619 91.2722 427.529 90.5322 435.662 90.2689C465.278 89.3287 493.715 94.2119 523.946 97.6089" stroke="url(#paint30_linear_103_73)" stroke-miterlimit="10"/>
<path d="M-75.7526 149.067C-56.7943 133.828 -32.3513 132.276 -7.83833 131.22C3.96379 130.748 16.3824 129.191 28.999 126.852C63.0974 120.559 92.6791 110.671 125.44 117.784C141.829 121.403 156.899 129.853 173.844 136.302C225.015 155.86 265.576 134.256 308.155 114.92C310.321 113.892 312.656 112.968 314.823 111.94C345.462 98.6408 376.295 86.7044 409.485 80.5248C417.593 79.0036 425.655 78.2448 433.635 78.0006C463.403 77.0416 491.689 81.9426 522.053 85.1959" stroke="url(#paint31_linear_103_73)" stroke-miterlimit="10"/>
<path d="M-77.4875 136.622C-58.6634 121.53 -34.256 119.731 -9.89478 118.693C1.90721 118.222 14.3088 116.541 26.7912 114.346C60.6039 108.216 91.2163 99.0835 123.272 106.662C139.866 110.633 154.802 119.223 171.595 125.69C222.987 145.719 263.069 122.919 305.996 102.789C308.162 101.761 310.48 100.714 312.664 99.8095C343.099 86.1611 374.27 74.4376 407.459 68.2596C415.567 66.7388 423.611 65.8564 431.743 65.5932C461.493 64.5107 489.93 69.3915 520.463 72.7488" stroke="url(#paint32_linear_103_73)" stroke-miterlimit="10"/>
<path d="M-79.238 124.055C-60.5656 108.987 -36.1585 107.188 -11.9666 106.046C-0.164776 105.575 12.085 103.914 24.5673 101.719C58.0942 95.7528 89.7204 87.2524 121.089 95.4187C137.735 99.7594 152.688 108.471 169.347 115.078C220.96 135.577 260.715 111.566 303.838 90.6606C306.005 89.633 308.171 88.6054 310.489 87.5588C340.737 73.6861 372.245 62.1759 405.416 55.8761C413.676 54.3368 421.72 53.4547 429.683 53.0868C459.566 51.8618 488.02 56.8648 518.553 60.2211" stroke="url(#paint33_linear_103_73)" stroke-miterlimit="10"/>
<path d="M-80.9723 111.612C-62.4339 96.6904 -38.2136 94.6634 -14.022 93.5219C-2.38937 92.9462 9.86012 91.2854 22.3598 89.2153C55.6185 83.5361 88.2585 75.6667 118.922 84.297C135.62 89.0079 150.591 97.8409 167.098 104.465C218.781 125.454 258.208 100.23 301.68 78.5312C303.846 77.5039 305.995 76.3527 308.313 75.3064C338.357 61.0851 370.051 49.8069 403.524 43.4708C411.784 41.932 419.828 41.05 427.791 40.6822C457.807 39.3148 486.127 44.4592 516.811 47.7956" stroke="url(#paint34_linear_103_73)" stroke-miterlimit="10"/>
<path d="M-82.7056 99.1687C-64.3014 84.3944 -40.0989 82.2443 -16.0766 80.9984C-4.44409 80.4229 7.65365 78.7816 20.1532 76.712C53.1436 71.32 86.628 63.9768 116.756 73.1754C133.675 78.361 148.494 87.2104 164.85 93.852C216.754 115.311 255.702 88.8947 299.674 66.3835C301.823 65.2327 303.989 64.2057 306.289 63.0359C336.146 48.5903 368.16 37.401 401.633 31.0668C409.892 29.5284 417.936 28.6467 426.033 28.1362C456.032 26.6455 484.503 31.7695 515.337 35.086" stroke="url(#paint35_linear_103_73)" stroke-miterlimit="10"/>
<path d="M-84.4368 86.728C-66.0329 71.9598 -41.9998 69.706 -18.1294 68.4796C23.9729 66.481 73.9989 48.6345 114.439 62.0775C131.411 67.6321 146.247 76.6014 162.468 83.383C214.593 105.309 253.062 77.7045 297.382 54.4036C328.792 37.8809 363.462 25.8601 399.474 18.9587C439.085 11.3549 474.337 18.6492 513.327 22.9575" stroke="url(#paint36_linear_103_73)" stroke-miterlimit="10"/>
<defs>
<linearGradient id="paint0_linear_103_73" x1="277.872" y1="509.308" x2="270.686" y2="451.859" gradientUnits="userSpaceOnUse">
<stop stop-color="#D3D3D3"/>
<stop offset="1"/>
</linearGradient>
<linearGradient id="paint1_linear_103_73" x1="276.134" y1="496.867" x2="269.116" y2="440.775" gradientUnits="userSpaceOnUse">
<stop stop-color="white"/>
<stop offset="1"/>
</linearGradient>
<linearGradient id="paint2_linear_103_73" x1="274.394" y1="484.422" x2="267.541" y2="429.668" gradientUnits="userSpaceOnUse">
<stop stop-color="white"/>
<stop offset="1"/>
</linearGradient>
<linearGradient id="paint3_linear_103_73" x1="272.656" y1="471.98" x2="265.968" y2="418.558" gradientUnits="userSpaceOnUse">
<stop stop-color="white"/>
<stop offset="1"/>
</linearGradient>
<linearGradient id="paint4_linear_103_73" x1="270.917" y1="459.538" x2="264.393" y2="407.436" gradientUnits="userSpaceOnUse">
<stop stop-color="white"/>
<stop offset="1"/>
</linearGradient>
<linearGradient id="paint5_linear_103_73" x1="269.177" y1="447.092" x2="262.816" y2="396.303" gradientUnits="userSpaceOnUse">
<stop stop-color="white"/>
<stop offset="1"/>
</linearGradient>
<linearGradient id="paint6_linear_103_73" x1="267.439" y1="434.65" x2="261.238" y2="385.161" gradientUnits="userSpaceOnUse">
<stop stop-color="white"/>
<stop offset="1"/>
</linearGradient>
<linearGradient id="paint7_linear_103_73" x1="265.7" y1="422.201" x2="259.66" y2="374.006" gradientUnits="userSpaceOnUse">
<stop stop-color="white"/>
<stop offset="1"/>
</linearGradient>
<linearGradient id="paint8_linear_103_73" x1="263.961" y1="409.759" x2="258.08" y2="362.845" gradientUnits="userSpaceOnUse">
<stop stop-color="white"/>
<stop offset="1"/>
</linearGradient>
<linearGradient id="paint9_linear_103_73" x1="262.223" y1="397.319" x2="256.5" y2="351.677" gradientUnits="userSpaceOnUse">
<stop stop-color="white"/>
<stop offset="1"/>
</linearGradient>
<linearGradient id="paint10_linear_103_73" x1="260.484" y1="384.873" x2="254.918" y2="340.495" gradientUnits="userSpaceOnUse">
<stop stop-color="white"/>
<stop offset="1"/>
</linearGradient>
<linearGradient id="paint11_linear_103_73" x1="258.745" y1="372.43" x2="253.335" y2="329.306" gradientUnits="userSpaceOnUse">
<stop stop-color="white"/>
<stop offset="1"/>
</linearGradient>
<linearGradient id="paint12_linear_103_73" x1="257.006" y1="359.979" x2="251.75" y2="318.1" gradientUnits="userSpaceOnUse">
<stop stop-color="white"/>
<stop offset="1"/>
</linearGradient>
<linearGradient id="paint13_linear_103_73" x1="255.267" y1="347.536" x2="250.162" y2="306.875" gradientUnits="userSpaceOnUse">
<stop stop-color="white"/>
<stop offset="1"/>
</linearGradient>
<linearGradient id="paint14_linear_103_73" x1="253.529" y1="335.092" x2="248.57" y2="295.6" gradientUnits="userSpaceOnUse">
<stop stop-color="#F9F9F9"/>
<stop offset="1"/>
</linearGradient>
<linearGradient id="paint15_linear_103_73" x1="251.791" y1="322.651" x2="246.971" y2="284.28" gradientUnits="userSpaceOnUse">
<stop stop-color="white"/>
<stop offset="1"/>
</linearGradient>
<linearGradient id="paint16_linear_103_73" x1="250.053" y1="310.206" x2="245.368" y2="272.917" gradientUnits="userSpaceOnUse">
<stop stop-color="white"/>
<stop offset="1"/>
</linearGradient>
<linearGradient id="paint17_linear_103_73" x1="248.374" y1="298.181" x2="243.766" y2="261.519" gradientUnits="userSpaceOnUse">
<stop stop-color="white"/>
<stop offset="1"/>
</linearGradient>
<linearGradient id="paint18_linear_103_73" x1="246.777" y1="286.741" x2="242.17" y2="250.078" gradientUnits="userSpaceOnUse">
<stop stop-color="white"/>
<stop offset="1"/>
</linearGradient>
<linearGradient id="paint19_linear_103_73" x1="245.196" y1="275.403" x2="240.572" y2="238.608" gradientUnits="userSpaceOnUse">
<stop stop-color="white"/>
<stop offset="1"/>
</linearGradient>
<linearGradient id="paint20_linear_103_73" x1="243.627" y1="264.155" x2="238.971" y2="227.107" gradientUnits="userSpaceOnUse">
<stop stop-color="white"/>
<stop offset="1"/>
</linearGradient>
<linearGradient id="paint21_linear_103_73" x1="242.069" y1="252.988" x2="237.368" y2="215.579" gradientUnits="userSpaceOnUse">
<stop stop-color="white"/>
<stop offset="1"/>
</linearGradient>
<linearGradient id="paint22_linear_103_73" x1="240.52" y1="241.883" x2="235.763" y2="204.018" gradientUnits="userSpaceOnUse">
<stop stop-color="white"/>
<stop offset="1"/>
</linearGradient>
<linearGradient id="paint23_linear_103_73" x1="238.981" y1="230.848" x2="234.156" y2="192.437" gradientUnits="userSpaceOnUse">
<stop stop-color="white"/>
<stop offset="1"/>
</linearGradient>
<linearGradient id="paint24_linear_103_73" x1="237.449" y1="219.859" x2="232.546" y2="180.822" gradientUnits="userSpaceOnUse">
<stop stop-color="white"/>
<stop offset="1"/>
</linearGradient>
<linearGradient id="paint25_linear_103_73" x1="235.923" y1="208.919" x2="230.933" y2="169.181" gradientUnits="userSpaceOnUse">
<stop stop-color="white"/>
<stop offset="1"/>
</linearGradient>
<linearGradient id="paint26_linear_103_73" x1="234.403" y1="198.014" x2="229.317" y2="157.505" gradientUnits="userSpaceOnUse">
<stop stop-color="white"/>
<stop offset="1"/>
</linearGradient>
<linearGradient id="paint27_linear_103_73" x1="232.888" y1="187.148" x2="227.698" y2="145.798" gradientUnits="userSpaceOnUse">
<stop stop-color="white"/>
<stop offset="1"/>
</linearGradient>
<linearGradient id="paint28_linear_103_73" x1="231.378" y1="176.313" x2="226.075" y2="134.056" gradientUnits="userSpaceOnUse">
<stop stop-color="white"/>
<stop offset="1"/>
</linearGradient>
<linearGradient id="paint29_linear_103_73" x1="229.871" y1="165.5" x2="224.447" y2="122.272" gradientUnits="userSpaceOnUse">
<stop stop-color="white"/>
<stop offset="1"/>
</linearGradient>
<linearGradient id="paint30_linear_103_73" x1="228.367" y1="154.711" x2="222.814" y2="110.442" gradientUnits="userSpaceOnUse">
<stop stop-color="white"/>
<stop offset="1"/>
</linearGradient>
<linearGradient id="paint31_linear_103_73" x1="226.866" y1="143.942" x2="221.176" y2="98.5641" gradientUnits="userSpaceOnUse">
<stop stop-color="white"/>
<stop offset="1"/>
</linearGradient>
<linearGradient id="paint32_linear_103_73" x1="225.368" y1="133.193" x2="219.529" y2="86.6172" gradientUnits="userSpaceOnUse">
<stop stop-color="white"/>
<stop offset="1"/>
</linearGradient>
<linearGradient id="paint33_linear_103_73" x1="223.873" y1="122.462" x2="217.88" y2="74.6387" gradientUnits="userSpaceOnUse">
<stop stop-color="white"/>
<stop offset="1"/>
</linearGradient>
<linearGradient id="paint34_linear_103_73" x1="222.38" y1="111.745" x2="216.222" y2="62.5964" gradientUnits="userSpaceOnUse">
<stop stop-color="white"/>
<stop offset="1"/>
</linearGradient>
<linearGradient id="paint35_linear_103_73" x1="220.893" y1="101.066" x2="214.55" y2="50.434" gradientUnits="userSpaceOnUse">
<stop stop-color="#DBDBDB"/>
<stop offset="1"/>
</linearGradient>
<linearGradient id="paint36_linear_103_73" x1="219.4" y1="90.3488" x2="212.836" y2="37.924" gradientUnits="userSpaceOnUse">
<stop stop-color="#DBDBDB"/>
<stop offset="1"/>
</linearGradient>
</defs>
</svg>
