<svg viewBox="0 0 1728 825" fill="none" xmlns="http://www.w3.org/2000/svg">
<path d="M-42.6728 677.248C-7.54119 652.84 35.9926 675.592 77.7718 665.07C120.744 654.108 118.841 635.964 176.786 620.438C213.411 610.572 324.452 659.771 362.879 660.18C409.103 660.539 430.694 632.868 476.4 641.004C503.672 645.895 530.792 650.793 558.063 655.683" stroke="url(#paint0_linear_267_221)" stroke-miterlimit="10"/>
<path d="M-43.5387 664.748C-20.2187 648.477 7.03591 653.119 34.8485 654.855C48.6787 655.727 62.6078 655.844 76.4328 652.341C119.271 641.633 118.131 623.443 175.395 609.074C186.817 606.202 204.921 609.092 225.622 614.09C269.526 624.826 324.769 644.446 354.651 647.319C357.116 647.56 359.419 647.685 361.562 647.693C399.344 647.637 420.989 629.331 452.651 627.107C459.652 626.601 467.172 626.942 475.382 628.37C502.645 633.136 529.926 638.152 557.198 643.043" stroke="url(#paint1_linear_267_221)" stroke-miterlimit="10"/>
<path d="M-44.4057 652.246C-21.2285 636.103 5.86485 640.629 33.669 642.24C47.347 643.121 61.2769 643.237 75.1111 639.858C117.663 629.411 117.428 611.042 174.02 597.955C185.46 595.331 203.573 598.346 224.131 603.478C268.214 614.582 323.056 632.852 353.36 635.203C355.825 635.444 358.128 635.568 360.262 635.452C397.857 634.905 419.834 616.951 451.497 614.726C458.498 614.219 466.009 614.435 474.219 615.864C501.626 620.498 528.907 625.514 556.188 630.531" stroke="url(#paint2_linear_267_221)" stroke-miterlimit="10"/>
<path d="M-45.2708 639.744C-22.093 623.597 4.83947 628.007 32.4916 629.627C46.1697 630.508 59.9384 630.508 73.7817 627.251C116.038 616.943 116.728 598.644 172.629 586.591C184.23 584.083 202.218 587.48 222.632 592.746C267.047 604.209 321.334 621.137 352.061 622.965C354.517 623.081 356.821 623.206 358.963 623.214C396.227 622.309 418.536 604.707 450.495 602.34C457.496 601.833 465.008 602.049 473.218 603.478C500.616 607.988 527.906 613.13 555.484 618.005" stroke="url(#paint3_linear_267_221)" stroke-miterlimit="10"/>
<path d="M-46.1456 627.12C-23.1107 611.1 3.80453 615.262 31.3135 617.015C44.8306 617.779 58.7606 617.895 72.4518 614.646C114.422 604.599 116.026 586.245 171.246 575.351C183.018 573.082 200.862 576.613 221.134 582.013C265.727 593.844 319.614 609.422 350.762 610.726C353.219 610.842 355.522 610.967 357.656 610.851C394.732 609.454 417.374 592.204 449.333 589.835C456.487 589.32 463.998 589.536 472.199 590.84C499.741 595.218 527.032 600.361 554.619 605.362" stroke="url(#paint4_linear_267_221)" stroke-miterlimit="10"/>
<path d="M-47.0117 614.616C-24.1198 598.724 2.78692 602.762 30.135 604.399C43.6522 605.163 57.421 605.162 71.1213 602.037C112.805 592.253 115.333 573.969 169.862 564.11C181.796 561.957 199.514 565.871 219.642 571.405C264.415 583.604 317.9 597.83 349.471 598.61C351.927 598.726 354.222 598.726 356.355 598.61C393.254 596.847 416.227 579.95 448.178 577.455C455.332 576.939 462.843 577.155 471.044 578.46C498.73 582.706 526.03 587.974 553.617 592.976" stroke="url(#paint5_linear_267_221)" stroke-miterlimit="10"/>
<path d="M-47.8777 602.116C-25.1375 586.228 1.60844 590.15 28.9569 591.786C42.4743 592.55 56.0908 592.558 69.7913 589.431C111.18 579.785 114.784 561.561 168.48 552.87C180.431 550.966 198.167 555.13 218.143 560.674C263.096 573.241 316.179 586.116 348.172 586.371C350.619 586.363 352.914 586.363 355.048 586.246C391.768 584.116 415.065 567.446 447.016 564.95C454.17 564.434 461.834 564.641 470.026 565.821C497.704 569.943 525.013 575.337 552.905 580.323" stroke="url(#paint6_linear_267_221)" stroke-miterlimit="10"/>
<path d="M-48.7428 589.608C-25.9933 573.841 0.582456 577.522 27.7788 579.167C41.144 579.939 54.9136 579.938 68.462 576.819C109.573 567.56 114.091 549.283 167.096 541.629C179.209 539.84 196.811 544.262 216.652 550.065C261.784 563 314.322 574.655 347.042 574.369C349.49 574.361 351.784 574.361 353.918 574.244C390.451 571.622 414.079 555.305 446.183 552.8C453.49 552.276 460.993 552.367 469.194 553.672C497.025 557.786 524.325 563.055 552.217 568.043" stroke="url(#paint7_linear_267_221)" stroke-miterlimit="10"/>
<path d="M-49.6088 577.108C-27.011 561.344 -0.434813 565.026 26.6007 566.554C39.9661 567.326 53.5745 567.208 67.132 564.213C107.948 555.092 113.551 537 165.714 530.39C177.997 528.842 195.464 533.523 215.153 539.336C260.464 552.64 312.6 562.941 345.743 562.131C348.191 562.122 350.477 561.997 352.61 561.881C388.812 558.899 412.925 542.927 445.021 540.295C452.319 539.645 459.831 539.861 468.023 541.041C495.845 545.031 523.307 550.419 551.2 555.407" stroke="url(#paint8_linear_267_221)" stroke-miterlimit="10"/>
<path d="M-50.4825 564.488C-28.0277 548.85 -1.62115 552.292 25.4147 553.82C38.6279 554.6 52.2364 554.482 65.7941 551.485C106.324 542.627 113.003 524.596 164.171 519.04C176.624 517.732 193.956 522.672 213.493 528.494C259.145 542.285 310.719 551.115 344.284 549.78C346.722 549.646 349.017 549.646 351.142 549.405C387.166 546.055 411.602 530.31 443.698 527.677C450.996 527.027 458.661 527.234 466.844 528.29C494.81 532.147 522.272 537.536 550.174 542.649" stroke="url(#paint9_linear_267_221)" stroke-miterlimit="10"/>
<path d="M-51.3486 551.982C-29.0368 536.473 -2.63875 539.791 24.2362 541.202C37.4407 541.858 50.8968 541.747 64.4636 538.874C104.707 530.28 112.319 512.443 162.786 507.8C175.401 506.608 192.608 511.932 212.002 517.889C257.833 532.048 308.861 539.656 342.992 537.663C345.431 537.529 347.717 537.404 349.842 537.162C385.687 533.446 410.302 518.062 442.543 515.294C449.841 514.644 457.506 514.851 465.689 515.907C493.647 519.64 521.118 525.154 549.325 530.252" stroke="url(#paint10_linear_267_221)" stroke-miterlimit="10"/>
<path d="M-52.2146 539.483C-30.0545 523.977 -3.66485 527.17 23.0581 528.59C36.2627 529.245 49.7189 529.135 63.1336 526.269C103.09 517.937 111.788 500.285 161.403 496.564C174.188 495.613 191.252 501.072 210.502 507.163C256.512 521.692 307.148 528.07 341.693 525.425C344.132 525.292 346.418 525.166 348.543 524.924C384.21 520.839 409.149 505.683 441.542 502.905C448.993 502.246 456.648 502.328 464.68 503.393C492.781 506.993 520.253 512.509 548.46 517.608" stroke="url(#paint11_linear_267_221)" stroke-miterlimit="10"/>
<path d="M-53.0797 526.974C-30.9102 511.589 -4.69068 514.541 21.8802 515.968C34.9325 516.632 48.3895 516.522 61.8132 513.779C101.627 505.578 111.418 488.238 160.029 485.448C172.985 484.737 189.913 490.456 209.02 496.681C255.21 511.58 305.444 516.601 340.411 513.43C342.841 513.171 345.127 513.046 347.252 512.804C382.588 508.359 408.003 493.423 440.397 490.644C447.847 489.985 455.503 490.067 463.687 491.123C491.932 494.591 519.413 500.232 547.62 505.332" stroke="url(#paint12_linear_267_221)" stroke-miterlimit="10"/>
<path d="M-53.9456 514.475C-31.9279 499.092 -5.86039 502.052 20.702 503.355C33.7545 504.019 47.0503 503.791 60.4831 501.173C100.01 493.234 110.895 476.204 158.646 474.212C171.763 473.618 188.718 479.713 207.52 485.957C253.898 501.35 303.578 505.023 339.112 501.192C341.542 500.933 343.819 500.683 345.944 500.441C381.093 495.502 406.848 481.043 439.234 478.138C446.684 477.478 454.341 477.56 462.516 478.491C490.753 481.834 518.242 487.602 546.755 492.686" stroke="url(#paint13_linear_267_221)" stroke-miterlimit="10"/>
<path d="M-54.8176 501.847C-32.9429 486.593 -6.89273 489.304 19.5175 490.615C32.4178 491.287 45.866 491.051 59.1465 488.439C98.3873 480.765 110.357 463.922 157.256 462.853C170.543 462.5 187.363 468.855 206.022 475.233C252.579 490.997 301.867 493.436 337.814 488.953C340.244 488.695 342.521 488.444 344.638 488.077C379.608 482.77 405.686 468.54 438.072 465.633C445.523 464.973 453.332 465.047 461.507 465.978C489.887 469.188 517.377 474.957 545.899 480.167" stroke="url(#paint14_linear_267_221)" stroke-miterlimit="10"/>
<path d="M-55.6835 489.349C-33.9518 474.224 -7.91892 476.685 18.3392 478.004C31.2397 478.676 44.5267 478.322 57.8163 475.835C96.7618 468.299 109.834 451.892 155.872 451.622C169.329 451.511 186.007 458 204.522 464.514C251.41 480.64 300.001 481.862 336.514 476.718C338.935 476.334 341.213 476.084 343.338 475.841C378.13 470.165 404.54 456.289 437.07 453.247C444.674 452.578 452.33 452.66 460.496 453.466C488.868 456.552 516.52 462.438 545.033 467.524" stroke="url(#paint15_linear_267_221)" stroke-miterlimit="10"/>
<path d="M-56.5466 476.847C-34.9668 461.725 -9.08595 464.194 17.1637 465.388C30.0555 465.935 43.1989 465.715 56.4887 463.227C95.1476 455.955 109.314 439.859 154.491 440.389C168.118 440.519 184.661 447.268 203.176 453.784C250.252 470.405 298.433 470.142 335.521 464.463C337.942 464.079 340.22 463.828 342.336 463.461C376.95 457.415 403.531 443.776 436.214 440.724C443.818 440.055 451.617 440.003 459.64 440.943C488.156 443.896 515.808 449.783 544.483 454.987" stroke="url(#paint16_linear_267_221)" stroke-miterlimit="10"/>
<path d="M-57.4115 464.338C-35.8226 449.338 -10.1119 451.566 15.9855 452.768C28.725 453.323 41.8691 453.103 55.159 450.614C93.5311 443.607 108.8 427.95 153.098 429.03C166.895 429.401 183.303 436.41 201.674 443.06C248.93 460.051 296.718 458.553 334.22 452.222C336.641 451.838 338.91 451.462 341.179 451.086C375.462 444.68 402.518 431.263 435.201 428.21C442.805 427.541 450.605 427.489 458.771 428.296C487.278 431.123 514.939 437.137 543.767 442.332" stroke="url(#paint17_linear_267_221)" stroke-miterlimit="10"/>
<path d="M-58.2737 451.809C-36.8371 436.817 -11.1352 438.92 14.8098 440.13C27.5492 440.686 40.6844 440.34 53.8307 437.985C91.9068 431.12 108.278 415.904 151.714 417.785C165.682 418.399 181.954 425.666 200.174 432.324C247.608 449.682 294.86 447.084 332.918 439.968C335.339 439.584 337.608 439.208 339.868 438.707C373.972 431.935 401.36 418.876 434.034 415.698C441.629 414.904 449.438 414.977 457.604 415.784C486.255 418.478 513.916 424.491 542.752 429.812" stroke="url(#paint18_linear_267_221)" stroke-miterlimit="10"/>
<path d="M-59.1419 439.153C-37.8491 424.296 -12.1559 426.274 13.6278 427.368C26.2148 427.931 39.3497 427.586 52.496 425.231C90.2847 418.633 107.91 403.852 150.171 406.425C164.461 407.272 180.447 414.806 198.523 421.597C246.145 439.446 292.994 435.489 331.466 427.724C333.878 427.214 336.147 426.839 338.416 426.463C372.341 419.324 400.051 406.5 432.877 403.314C440.625 402.511 448.434 402.584 456.591 403.266C485.395 405.951 513.055 411.964 542.035 417.152" stroke="url(#paint19_linear_267_221)" stroke-miterlimit="10"/>
<path d="M-60.0033 426.622C-38.8542 411.899 -13.3311 413.635 12.4526 414.729C25.0395 415.292 38.0131 414.83 51.1682 412.6C88.6696 406.27 107.398 391.931 148.788 395.18C163.248 396.269 179.099 404.061 197.022 410.86C244.823 429.075 291.279 423.885 330.164 415.469C332.576 414.96 334.845 414.584 337.105 414.083C370.86 406.703 398.883 393.988 431.71 390.802C439.457 390 447.257 389.948 455.424 390.754C484.218 393.315 511.888 399.453 541.02 404.631" stroke="url(#paint20_linear_267_221)" stroke-miterlimit="10"/>
<path d="M-60.8651 414.087C-39.8686 399.374 -14.3543 400.985 11.2768 402.087C23.7113 402.659 36.8371 402.189 49.8397 399.968C87.0449 393.78 106.884 380.009 147.403 383.934C162.042 385.389 177.75 393.314 195.521 400.122C243.509 418.827 289.411 412.287 328.861 403.214C331.273 402.704 333.533 402.204 335.793 401.703C369.216 393.965 397.723 381.601 430.541 378.291C438.288 377.488 446.241 377.428 454.246 378.118C483.184 380.545 510.854 386.683 539.994 391.986" stroke="url(#paint21_linear_267_221)" stroke-miterlimit="10"/>
<path d="M-61.7266 401.545C-40.7215 386.96 -15.3689 388.454 10.1008 389.439C22.5265 389.886 35.5003 389.425 48.5205 387.454C85.4382 381.534 106.379 368.207 146.028 372.807C160.837 374.504 176.401 382.562 194.036 389.627C242.204 408.697 287.721 401.049 327.575 391.202C329.979 390.568 332.247 390.192 334.498 389.567C367.742 381.463 396.419 369.343 429.542 366.017C437.441 365.207 445.241 365.154 453.39 365.711C482.319 368.013 510.15 374.267 539.442 379.561" stroke="url(#paint22_linear_267_221)" stroke-miterlimit="10"/>
<path d="M-62.5955 388.887C-41.743 374.311 -16.5517 375.689 8.91788 376.674C21.3434 377.122 34.1647 376.668 47.1847 374.698C83.815 369.046 105.867 356.288 144.636 361.438C159.615 363.376 175.044 371.691 192.527 378.764C240.882 398.324 285.997 389.319 326.264 378.823C328.515 378.198 330.928 377.688 333.179 377.063C366.244 368.594 395.252 356.834 428.365 353.384C436.264 352.573 444.217 352.513 452.213 353.078C481.286 355.246 509.116 361.5 538.409 366.794" stroke="url(#paint23_linear_267_221)" stroke-miterlimit="10"/>
<path d="M-63.4568 376.345C-42.7483 361.906 -17.5659 363.159 7.74224 364.028C20.0153 364.484 32.8362 364.031 45.8562 362.061C82.19 356.552 105.361 344.488 143.251 350.188C158.409 352.493 173.694 360.94 191.034 368.145C239.576 388.193 284.298 377.957 324.969 366.689C327.22 366.063 329.632 365.554 331.883 364.929C364.769 356.096 394.099 344.572 427.212 341.122C435.111 340.312 443.055 340.127 451.204 340.683C480.419 342.718 508.106 349.104 537.551 354.39" stroke="url(#paint24_linear_267_221)" stroke-miterlimit="10"/>
<path d="M-64.3163 363.808C-43.7517 349.505 -18.5871 350.507 6.5685 351.385C18.8414 351.841 31.6533 351.263 44.5295 349.427C80.7283 344.178 104.849 332.566 141.869 338.94C157.196 341.487 172.347 350.191 189.534 357.403C238.255 377.815 282.431 366.357 323.828 354.549C326.079 353.924 328.483 353.29 330.734 352.664C363.44 343.467 393.092 332.178 426.205 328.729C434.104 327.919 442.048 327.734 450.196 328.291C479.403 330.201 507.242 336.578 536.848 341.979" stroke="url(#paint25_linear_267_221)" stroke-miterlimit="10"/>
<path d="M-65.1772 351.266C-44.7655 336.975 -19.6098 337.853 5.3931 338.739C17.5135 339.203 30.3251 338.626 43.2012 336.79C79.1123 331.81 104.191 320.775 140.484 327.69C155.838 330.611 170.997 339.439 188.041 346.783C236.95 367.683 280.732 354.995 322.532 342.415C324.774 341.665 327.178 341.032 329.429 340.406C361.965 330.969 391.939 319.917 425.195 316.336C433.247 315.518 441.19 315.333 449.177 315.773C478.528 317.55 506.375 324.051 535.981 329.451" stroke="url(#paint26_linear_267_221)" stroke-miterlimit="10"/>
<path d="M-66.0376 338.728C-45.6174 324.565 -20.7759 325.335 4.21797 326.097C16.3383 326.561 28.9891 325.867 41.8739 324.157C77.4886 319.32 103.687 308.978 139.1 316.443C154.633 319.73 169.649 328.689 186.54 336.04C235.627 357.304 279.024 343.511 321.229 330.16C323.471 329.41 325.874 328.776 328.116 328.026C360.321 318.234 390.77 307.408 424.025 303.829C432.077 303.011 440.02 302.826 448.16 303.258C477.501 304.91 505.357 311.535 535.106 316.801" stroke="url(#paint27_linear_267_221)" stroke-miterlimit="10"/>
<path d="M-66.9047 326.069C-46.6373 311.917 -21.8048 312.562 3.03648 313.332C15.1479 313.671 27.6548 313.111 40.5395 311.402C75.8667 306.832 103.185 297.184 137.709 305.073C153.421 308.726 168.141 317.825 185.032 325.175C234.307 346.926 277.302 331.779 319.919 317.782C322.161 317.032 324.555 316.273 326.806 315.648C358.831 305.492 389.458 295.035 422.857 291.324C430.9 290.382 438.995 290.189 446.983 290.629C476.467 292.147 504.323 298.771 534.234 304.154" stroke="url(#paint28_linear_267_221)" stroke-miterlimit="10"/>
<path d="M-67.7638 313.528C-47.6405 299.514 -22.8259 299.91 1.86268 300.688C13.8215 301.036 26.4718 300.343 39.2126 298.768C74.2433 294.342 102.528 285.396 136.174 293.832C152.055 297.726 166.64 307.081 183.387 314.563C232.697 336.808 275.451 320.426 318.471 305.659C320.713 304.909 323.108 304.151 325.35 303.402C357.196 292.882 388.145 282.662 421.543 278.952C429.585 278.01 437.681 277.817 445.668 278.257C475.287 279.518 503.16 286.391 533.071 291.772" stroke="url(#paint29_linear_267_221)" stroke-miterlimit="10"/>
<path d="M-68.6234 300.99C-48.644 287.113 -23.9908 287.392 0.68861 288.046C12.6473 288.394 25.1448 287.71 37.8855 286.135C72.6286 281.977 101.872 273.608 134.79 282.584C150.698 286.852 165.292 296.33 181.887 303.818C231.384 326.55 273.744 308.941 317.168 293.404C319.401 292.529 321.795 291.772 324.037 291.022C355.712 280.264 386.974 270.156 420.525 266.439C428.72 265.489 436.663 265.305 444.794 265.611C474.403 266.747 502.429 273.61 532.347 279.116" stroke="url(#paint30_linear_267_221)" stroke-miterlimit="10"/>
<path d="M-69.4833 288.451C-49.5044 274.577 -25.0127 274.741 -0.485932 275.403C11.3202 275.76 23.8174 275.076 36.5668 273.626C71.0222 269.736 101.224 261.944 133.406 271.334C149.502 276.092 163.943 285.576 180.394 293.197C230.07 316.29 272.045 297.579 315.873 281.272C318.106 280.398 320.5 279.641 322.733 278.767C354.229 267.646 385.822 257.898 419.363 254.058C427.557 253.108 435.652 252.916 443.631 253.231C473.392 254.359 501.266 261.229 531.328 266.601" stroke="url(#paint31_linear_267_221)" stroke-miterlimit="10"/>
<path d="M-70.3414 275.914C-50.5065 262.178 -26.0331 262.092 -1.65904 262.763C10.147 263.12 22.6358 262.311 35.2414 260.996C69.4003 257.248 100.577 250.282 132.024 260.087C148.298 265.21 162.596 274.825 178.895 282.452C228.759 306.031 270.339 286.094 314.57 269.019C316.803 268.145 319.188 267.263 321.43 266.514C352.746 255.031 384.661 245.519 418.202 241.68C426.397 240.731 434.483 240.414 442.614 240.721C472.366 241.725 500.391 248.585 530.614 254.072" stroke="url(#paint32_linear_267_221)" stroke-miterlimit="10"/>
<path d="M-71.2075 263.256C-51.5257 249.533 -27.0525 249.448 -2.84007 250.003C8.96577 250.359 21.3018 249.56 33.9072 248.245C67.7696 244.641 99.9134 238.376 130.633 248.719C146.934 254.215 161.24 263.952 177.395 271.71C227.447 295.773 268.785 274.605 313.267 256.771C315.5 255.897 317.733 255.024 320.119 254.142C351.264 242.422 383.501 233.147 417.032 229.185C425.378 228.228 433.465 227.911 441.434 228.102C471.33 228.973 499.363 235.956 529.586 241.442" stroke="url(#paint33_linear_267_221)" stroke-miterlimit="10"/>
<path d="M-72.0656 250.722C-52.5279 237.136 -28.2251 236.81 -4.01297 237.365C7.63146 237.606 19.9672 236.807 32.5812 235.617C66.1559 232.281 99.2669 226.717 129.251 237.473C145.578 243.342 159.893 253.202 175.896 260.966C225.982 285.522 267.079 263.122 311.964 244.52C314.197 243.647 316.421 242.649 318.806 241.768C349.772 229.685 382.178 220.654 416.013 216.678C424.36 215.721 432.446 215.405 440.415 215.596C470.454 216.334 498.344 223.449 528.719 228.926" stroke="url(#paint34_linear_267_221)" stroke-miterlimit="10"/>
<path d="M-72.9246 238.188C-53.531 224.739 -29.2373 224.289 -5.18679 224.729C6.45747 224.969 18.6404 224.179 31.2542 222.99C64.5413 219.922 98.4577 214.941 127.867 226.227C144.382 232.585 158.545 242.45 174.395 250.221C224.669 275.262 265.371 251.638 310.812 232.262C313.036 231.264 315.269 230.391 317.646 229.386C348.441 217.066 381.159 208.146 414.994 204.172C423.341 203.216 431.427 202.899 439.539 202.957C469.569 203.571 497.611 210.676 528.138 216.144" stroke="url(#paint35_linear_267_221)" stroke-miterlimit="10"/>
<path d="M-73.7799 225.657C-54.387 212.214 -30.255 211.648 -6.35738 212.097C35.7815 213.051 86.9345 198.752 126.334 214.994C142.875 221.724 157.047 231.71 172.753 239.611C223.214 265.133 263.522 240.29 309.365 220.15C341.856 205.868 377.281 196.305 413.688 191.942C453.735 187.131 488.39 196.876 526.982 203.904" stroke="url(#paint36_linear_267_221)" stroke-miterlimit="10"/>
<path d="M1217.4 635.002C1256.69 610.358 1304.96 632.842 1351.54 622.047C1399.45 610.805 1397.48 592.666 1462.09 576.762C1502.93 566.657 1626.13 615.167 1668.89 615.329C1720.34 615.393 1744.58 587.572 1795.39 595.419C1825.7 600.137 1855.85 604.863 1886.16 609.581" stroke="url(#paint37_linear_267_221)" stroke-miterlimit="10"/>
<path d="M1216.53 622.502C1242.61 606.075 1272.91 610.544 1303.85 612.103C1319.24 612.887 1334.74 612.914 1350.15 609.321C1397.91 598.334 1396.78 580.144 1460.63 565.402C1473.36 562.455 1493.49 565.23 1516.49 570.098C1565.27 580.558 1626.6 599.833 1659.84 602.516C1662.58 602.741 1665.14 602.851 1667.53 602.846C1709.58 602.547 1733.81 584.095 1769.07 581.668C1776.86 581.117 1785.23 581.409 1794.35 582.785C1824.66 587.379 1854.98 592.222 1885.3 596.941" stroke="url(#paint38_linear_267_221)" stroke-miterlimit="10"/>
<path d="M1215.66 610C1241.58 593.701 1271.7 598.056 1302.64 599.49C1317.85 600.283 1333.35 600.311 1348.78 596.841C1396.22 586.118 1396.1 567.742 1459.19 554.286C1471.94 551.588 1492.07 554.488 1514.91 559.491C1563.89 570.318 1624.79 588.245 1658.5 590.403C1661.24 590.628 1663.8 590.738 1666.18 590.608C1708.02 589.819 1732.62 571.717 1767.88 569.288C1775.67 568.736 1784.03 568.904 1793.16 570.281C1823.63 574.742 1853.95 579.586 1884.27 584.43" stroke="url(#paint39_linear_267_221)" stroke-miterlimit="10"/>
<path d="M1214.8 597.499C1240.72 581.195 1270.66 585.435 1301.42 586.879C1316.64 587.672 1331.96 587.584 1347.4 584.238C1394.51 573.654 1395.41 555.343 1457.72 542.927C1470.66 540.343 1490.65 543.626 1513.33 548.764C1562.67 559.948 1622.96 576.536 1657.14 578.167C1659.88 578.268 1662.44 578.378 1664.82 578.372C1706.3 577.228 1731.27 559.476 1766.86 556.903C1774.65 556.351 1783.01 556.519 1792.14 557.896C1822.6 562.233 1852.93 567.202 1883.59 571.903" stroke="url(#paint40_linear_267_221)" stroke-miterlimit="10"/>
<path d="M1213.92 584.875C1239.68 568.7 1269.61 572.692 1300.21 574.269C1315.25 574.947 1330.75 574.974 1346.01 571.636C1392.8 561.316 1394.73 542.944 1456.27 531.691C1469.39 529.346 1489.23 532.764 1511.74 538.037C1561.28 549.588 1621.14 564.828 1655.79 565.932C1658.53 566.033 1661.09 566.143 1663.47 566.013C1704.74 564.378 1730.07 546.976 1765.66 544.401C1773.63 543.84 1781.99 544.008 1791.1 545.26C1821.72 549.464 1852.06 554.434 1882.72 559.261" stroke="url(#paint41_linear_267_221)" stroke-miterlimit="10"/>
<path d="M1213.06 572.371C1238.66 556.326 1268.57 560.193 1299 561.655C1314.04 562.333 1329.36 562.244 1344.63 559.03C1391.1 548.975 1394.06 530.667 1454.82 520.454C1468.12 518.224 1487.81 522.026 1510.17 527.434C1559.9 539.351 1619.32 553.241 1654.45 553.819C1657.18 553.92 1659.74 553.905 1662.11 553.775C1703.19 551.775 1728.89 534.723 1764.47 532.023C1772.44 531.461 1780.8 531.629 1789.92 532.882C1820.7 536.952 1851.04 542.048 1881.7 546.875" stroke="url(#paint42_linear_267_221)" stroke-miterlimit="10"/>
<path d="M1212.19 559.871C1237.62 543.83 1267.36 547.583 1297.78 549.045C1312.82 549.722 1327.98 549.643 1343.25 546.427C1389.39 536.511 1393.54 518.257 1453.37 509.218C1466.69 507.237 1486.39 511.289 1508.58 516.707C1558.52 528.992 1617.5 541.533 1653.1 541.584C1655.82 541.559 1658.38 541.545 1660.75 541.414C1701.64 539.048 1727.7 522.221 1763.28 519.52C1771.24 518.958 1779.77 519.116 1788.88 520.244C1819.65 524.191 1850 529.412 1881.01 534.222" stroke="url(#paint43_linear_267_221)" stroke-miterlimit="10"/>
<path d="M1211.32 547.362C1236.76 531.442 1266.31 534.955 1296.57 536.426C1311.44 537.113 1326.76 537.024 1341.87 533.817C1387.69 524.291 1392.86 505.977 1451.92 497.98C1465.41 496.113 1484.97 500.424 1507.01 506.102C1557.14 518.754 1615.52 530.077 1651.94 529.583C1654.66 529.558 1657.21 529.544 1659.59 529.413C1700.27 526.556 1726.69 510.081 1762.45 507.369C1770.58 506.798 1778.93 506.84 1788.05 508.093C1818.99 512.031 1849.33 517.128 1880.34 521.939" stroke="url(#paint44_linear_267_221)" stroke-miterlimit="10"/>
<path d="M1210.45 534.864C1235.73 518.947 1265.28 522.461 1295.36 523.816C1310.22 524.503 1325.37 524.298 1340.48 521.214C1385.98 511.829 1392.36 493.693 1450.46 486.746C1464.15 485.118 1483.55 489.69 1505.42 495.379C1555.75 508.399 1613.69 518.371 1650.59 517.348C1653.31 517.324 1655.85 517.184 1658.23 517.054C1698.54 513.839 1725.51 497.705 1761.25 494.867C1769.37 494.17 1777.73 494.338 1786.84 495.466C1817.78 499.28 1848.3 504.493 1879.3 509.305" stroke="url(#paint45_linear_267_221)" stroke-miterlimit="10"/>
<path d="M1209.58 522.243C1234.69 506.455 1264.06 509.729 1294.14 511.084C1308.83 511.781 1323.98 511.575 1339.09 508.49C1384.27 499.369 1391.85 481.286 1448.84 475.4C1462.71 474.012 1481.96 478.844 1503.66 484.543C1554.36 498.047 1611.69 506.551 1649.06 505.001C1651.77 504.851 1654.33 504.837 1656.69 504.581C1696.81 501 1724.13 485.091 1759.87 482.251C1768 481.554 1776.53 481.713 1785.63 482.716C1816.73 486.396 1847.25 491.611 1878.26 496.549" stroke="url(#paint46_linear_267_221)" stroke-miterlimit="10"/>
<path d="M1208.72 509.737C1233.67 494.079 1263.02 497.228 1292.92 498.468C1307.61 499.04 1322.59 498.843 1337.71 495.882C1382.57 487.026 1391.18 469.133 1447.38 464.165C1461.43 462.891 1480.54 468.108 1502.08 473.943C1552.98 487.815 1609.71 495.1 1647.71 492.886C1650.43 492.737 1652.98 492.597 1655.34 492.342C1695.27 488.394 1722.78 472.846 1758.69 469.87C1766.81 469.173 1775.34 469.331 1784.44 470.335C1815.53 473.891 1846.06 479.232 1877.41 484.151" stroke="url(#paint47_linear_267_221)" stroke-miterlimit="10"/>
<path d="M1207.85 497.239C1232.63 481.585 1261.98 484.61 1291.71 485.859C1306.4 486.43 1321.38 486.234 1336.33 483.28C1380.86 474.689 1390.68 456.974 1445.93 452.934C1460.17 451.9 1479.12 457.252 1500.49 463.223C1551.59 477.464 1607.9 483.52 1646.36 480.653C1649.08 480.503 1651.62 480.363 1653.99 480.108C1693.72 475.793 1721.59 460.47 1757.67 457.484C1765.96 456.777 1774.48 456.81 1783.41 457.823C1814.66 461.245 1845.19 466.587 1876.55 471.508" stroke="url(#paint48_linear_267_221)" stroke-miterlimit="10"/>
<path d="M1206.98 484.729C1231.78 469.195 1260.93 471.981 1290.5 473.239C1305.02 473.819 1320 473.622 1334.96 470.793C1379.33 462.333 1390.36 444.922 1444.49 441.82C1458.91 441.026 1477.71 446.639 1498.93 452.745C1550.22 467.354 1606.09 472.056 1645.03 468.66C1647.74 468.385 1650.28 468.245 1652.65 467.99C1692.01 463.316 1720.41 448.211 1756.49 445.223C1764.78 444.516 1773.3 444.549 1782.41 445.553C1813.81 448.842 1844.36 454.31 1875.71 459.231" stroke="url(#paint49_linear_267_221)" stroke-miterlimit="10"/>
<path d="M1206.11 472.23C1230.74 456.699 1259.73 459.494 1289.28 460.627C1303.8 461.208 1318.6 460.895 1333.57 458.189C1377.63 449.994 1389.87 432.887 1443.03 430.588C1457.64 429.91 1476.46 435.898 1497.34 442.025C1548.84 457.129 1604.1 460.484 1643.68 456.424C1646.38 456.15 1648.92 455.885 1651.29 455.629C1690.45 450.463 1719.22 435.833 1755.29 432.719C1763.59 432.011 1772.11 432.044 1781.2 432.923C1812.6 436.087 1843.15 441.681 1874.84 446.585" stroke="url(#paint50_linear_267_221)" stroke-miterlimit="10"/>
<path d="M1205.24 459.602C1229.71 444.201 1258.68 446.747 1288.06 447.889C1302.41 448.479 1317.38 448.156 1332.18 445.459C1375.92 437.53 1389.37 420.603 1441.58 419.233C1456.37 418.795 1475.04 425.044 1495.75 431.307C1547.45 446.779 1602.29 448.903 1642.33 444.189C1645.04 443.914 1647.57 443.649 1649.93 443.268C1688.89 437.735 1718.03 423.332 1754.09 420.216C1762.39 419.508 1771.08 419.532 1780.17 420.411C1811.74 423.441 1842.29 429.036 1873.99 434.066" stroke="url(#paint51_linear_267_221)" stroke-miterlimit="10"/>
<path d="M1204.38 447.104C1228.68 431.833 1257.64 434.128 1286.85 435.28C1301.2 435.869 1315.99 435.431 1330.8 432.857C1374.21 425.069 1388.88 408.571 1440.12 408.006C1455.1 407.808 1473.61 414.194 1494.17 420.592C1546.23 436.424 1600.3 437.336 1640.98 431.956C1643.68 431.557 1646.21 431.291 1648.58 431.035C1687.35 425.134 1716.85 411.082 1753.08 407.831C1761.54 407.113 1770.06 407.146 1779.15 407.9C1810.7 410.805 1841.43 416.517 1873.12 421.423" stroke="url(#paint52_linear_267_221)" stroke-miterlimit="10"/>
<path d="M1203.51 434.602C1227.65 419.335 1256.43 421.64 1285.64 422.666C1299.98 423.131 1314.61 422.826 1329.42 420.252C1372.5 412.729 1388.4 396.536 1438.67 396.777C1453.84 396.82 1472.2 403.466 1492.75 409.866C1545.02 426.193 1598.64 425.622 1639.97 419.702C1642.66 419.302 1645.2 419.037 1647.56 418.656C1686.13 412.386 1715.82 398.571 1752.22 395.308C1760.69 394.59 1769.37 394.488 1778.29 395.377C1810 398.149 1840.73 403.862 1872.61 408.884" stroke="url(#paint53_linear_267_221)" stroke-miterlimit="10"/>
<path d="M1202.65 422.093C1226.79 406.948 1255.39 409.012 1284.42 410.048C1298.6 410.522 1313.23 410.217 1328.04 407.642C1370.8 400.386 1387.92 384.624 1437.21 385.422C1452.56 385.705 1470.77 392.612 1491.17 399.147C1543.63 415.842 1596.83 414.038 1638.61 407.464C1641.31 407.064 1643.84 406.673 1646.37 406.283C1684.57 399.655 1714.79 386.059 1751.19 382.795C1759.66 382.077 1768.34 381.975 1777.42 382.73C1809.13 385.376 1839.87 391.215 1871.91 396.228" stroke="url(#paint54_linear_267_221)" stroke-miterlimit="10"/>
<path d="M1201.78 409.564C1225.76 394.428 1254.35 396.368 1283.21 397.412C1297.39 397.886 1312.01 397.457 1326.66 395.016C1369.09 387.904 1387.43 372.577 1435.76 374.181C1451.3 374.705 1469.35 381.872 1489.58 388.416C1542.24 405.477 1594.85 402.575 1637.26 395.213C1639.96 394.813 1642.49 394.423 1645 393.907C1683.01 386.913 1713.6 373.674 1749.99 370.285C1758.45 369.442 1767.14 369.465 1776.22 370.22C1808.09 372.732 1838.82 378.57 1870.88 383.709" stroke="url(#paint55_linear_267_221)" stroke-miterlimit="10"/>
<path d="M1200.91 396.908C1224.73 381.908 1253.31 383.722 1282 384.652C1296 385.135 1310.62 384.705 1325.27 382.265C1367.38 375.422 1387.11 360.522 1434.13 362.826C1450.02 363.581 1467.76 371.016 1487.82 377.695C1540.69 395.247 1592.86 390.988 1635.74 382.973C1638.43 382.448 1640.95 382.057 1643.48 381.667C1681.29 374.307 1712.23 361.3 1748.79 357.903C1757.42 357.05 1766.11 357.073 1775.19 357.703C1807.22 360.205 1837.96 366.044 1870.17 371.048" stroke="url(#paint56_linear_267_221)" stroke-miterlimit="10"/>
<path d="M1200.05 384.377C1223.7 369.512 1252.1 371.085 1280.79 372.015C1294.79 372.498 1309.23 371.952 1323.89 369.637C1365.68 363.064 1386.63 348.599 1432.67 351.585C1448.76 352.581 1466.34 360.275 1486.24 366.963C1539.29 384.88 1591.04 379.389 1634.38 370.721C1637.07 370.196 1639.6 369.806 1642.12 369.29C1679.74 361.691 1711.03 348.79 1747.59 345.393C1756.22 344.541 1764.9 344.439 1773.98 345.193C1806.01 347.571 1836.76 353.534 1869.14 358.528" stroke="url(#paint57_linear_267_221)" stroke-miterlimit="10"/>
<path d="M1199.19 371.843C1222.67 356.989 1251.06 358.437 1279.58 359.375C1293.41 359.868 1308.02 359.313 1322.51 357.008C1363.97 350.579 1386.16 336.675 1431.22 340.342C1447.5 341.705 1464.92 349.533 1484.65 356.229C1537.91 374.636 1589.05 367.798 1633.03 358.469C1635.72 357.944 1638.24 357.428 1640.76 356.913C1678.02 348.957 1709.84 336.406 1746.39 332.884C1755.02 332.031 1763.87 331.92 1772.77 332.559C1804.96 334.802 1835.71 340.765 1868.1 345.884" stroke="url(#paint58_linear_267_221)" stroke-miterlimit="10"/>
<path d="M1198.33 359.3C1221.82 344.574 1250.03 345.906 1278.37 346.729C1292.19 347.097 1306.63 346.552 1321.14 344.497C1362.28 338.338 1385.68 324.871 1429.78 329.22C1446.25 330.823 1463.51 338.784 1483.08 345.739C1536.54 364.509 1587.26 356.567 1631.69 346.46C1634.37 345.81 1636.9 345.42 1639.41 344.779C1676.47 336.46 1708.48 324.151 1745.37 320.611C1754.17 319.749 1762.85 319.647 1771.92 320.152C1804.1 322.27 1835.02 328.348 1867.58 333.457" stroke="url(#paint59_linear_267_221)" stroke-miterlimit="10"/>
<path d="M1197.46 346.642C1220.78 331.926 1248.81 333.143 1277.15 333.966C1290.97 334.334 1305.25 333.799 1319.75 331.744C1360.57 325.855 1385.21 312.95 1428.32 317.854C1444.97 319.697 1462.08 327.917 1481.48 334.881C1535.15 354.14 1585.43 344.842 1630.33 334.084C1632.84 333.444 1635.53 332.919 1638.04 332.278C1674.9 323.595 1707.28 311.644 1744.16 307.98C1752.96 307.118 1761.81 307.007 1770.7 307.521C1803.04 309.504 1833.97 315.582 1866.53 320.691" stroke="url(#paint60_linear_267_221)" stroke-miterlimit="10"/>
<path d="M1196.6 334.1C1219.76 319.522 1247.78 320.614 1275.94 321.322C1289.6 321.699 1303.87 321.164 1318.37 319.11C1358.86 313.366 1384.74 301.148 1426.86 306.608C1443.72 308.817 1460.66 317.17 1479.91 324.267C1533.78 344.013 1583.63 333.486 1628.98 321.953C1631.49 321.313 1634.18 320.788 1636.69 320.148C1673.36 311.1 1706.09 299.383 1742.97 295.72C1751.77 294.859 1760.61 294.623 1769.68 295.127C1802.18 296.976 1832.94 303.188 1865.67 308.287" stroke="url(#paint61_linear_267_221)" stroke-miterlimit="10"/>
<path d="M1195.74 321.563C1218.74 307.122 1246.74 307.964 1274.73 308.681C1288.39 309.058 1302.65 308.398 1316.99 306.479C1357.32 300.996 1384.26 289.224 1425.41 295.364C1442.45 297.814 1459.25 306.425 1478.32 313.53C1532.39 333.639 1581.64 321.893 1627.81 309.815C1630.32 309.175 1633 308.525 1635.51 307.885C1671.98 298.474 1705.07 286.99 1741.95 283.328C1750.75 282.467 1759.59 282.231 1768.65 282.736C1801.14 284.46 1832.08 290.661 1864.99 295.875" stroke="url(#paint62_linear_267_221)" stroke-miterlimit="10"/>
<path d="M1194.88 309.021C1217.71 294.593 1245.7 295.31 1273.52 296.037C1287.01 296.424 1301.27 295.764 1315.62 293.845C1355.62 288.632 1383.62 277.432 1423.96 284.118C1441.02 286.942 1457.83 295.676 1476.74 302.915C1531.01 323.511 1579.84 310.537 1626.46 297.684C1628.96 296.919 1631.64 296.27 1634.15 295.63C1670.44 285.981 1703.88 274.731 1740.92 270.936C1749.89 270.066 1758.73 269.83 1767.62 270.219C1800.27 271.809 1831.21 278.134 1864.12 283.348" stroke="url(#paint63_linear_267_221)" stroke-miterlimit="10"/>
<path d="M1194.02 296.484C1216.86 282.183 1244.5 282.795 1272.31 283.396C1285.8 283.783 1299.88 283.008 1314.24 281.215C1353.91 276.147 1383.15 265.634 1422.51 272.875C1439.77 276.064 1456.41 284.931 1475.15 292.177C1529.62 313.135 1578.03 299.059 1625.1 285.431C1627.6 284.667 1630.28 284.018 1632.78 283.253C1668.7 273.25 1702.68 262.225 1739.72 258.431C1748.68 257.561 1757.53 257.325 1766.58 257.705C1799.22 259.17 1830.18 265.619 1863.25 270.698" stroke="url(#paint64_linear_267_221)" stroke-miterlimit="10"/>
<path d="M1193.15 283.824C1215.82 269.536 1243.45 270.022 1271.09 270.634C1284.57 270.896 1298.5 270.255 1312.85 268.463C1352.2 263.665 1382.68 253.838 1421.05 261.508C1438.5 265.062 1454.82 274.071 1473.56 281.317C1528.23 302.762 1576.2 287.333 1623.74 273.056C1626.24 272.292 1628.91 271.518 1631.42 270.878C1667.14 260.512 1701.31 249.855 1738.51 245.928C1747.47 244.934 1756.48 244.689 1765.37 245.078C1798.17 246.408 1829.12 252.857 1862.37 258.05" stroke="url(#paint65_linear_267_221)" stroke-miterlimit="10"/>
<path d="M1192.29 271.284C1214.8 257.134 1242.41 257.371 1269.89 257.992C1283.19 258.263 1297.28 257.489 1311.47 255.832C1350.49 251.179 1382.04 242.048 1419.42 250.273C1437.07 254.067 1453.23 263.333 1471.81 270.71C1526.52 292.65 1574.23 275.987 1622.22 260.938C1624.72 260.173 1627.39 259.4 1629.9 258.635C1665.42 247.907 1699.94 237.485 1737.14 233.559C1746.1 232.565 1755.11 232.321 1764 232.71C1796.96 233.781 1827.92 240.478 1861.17 245.671" stroke="url(#paint66_linear_267_221)" stroke-miterlimit="10"/>
<path d="M1191.44 258.745C1213.78 244.734 1241.22 244.856 1268.68 245.352C1281.99 245.623 1295.9 244.859 1310.09 243.202C1348.79 238.819 1381.4 230.26 1417.97 239.029C1435.64 243.196 1451.81 252.585 1470.22 259.971C1525.14 282.396 1572.42 264.507 1620.87 248.685C1623.36 247.796 1626.03 247.023 1628.53 246.259C1663.87 235.293 1698.74 224.98 1736.11 221.047C1745.24 220.044 1754.08 219.809 1763.13 220.064C1796.07 221.011 1827.21 227.697 1860.47 233.013" stroke="url(#paint67_linear_267_221)" stroke-miterlimit="10"/>
<path d="M1190.58 246.206C1212.92 232.199 1240.18 232.205 1267.47 232.711C1280.61 232.992 1294.52 232.228 1308.72 230.696C1347.1 226.584 1380.77 218.594 1416.52 227.783C1434.39 232.44 1450.39 241.836 1468.64 249.354C1523.75 272.139 1570.61 253.151 1619.52 236.557C1622.01 235.668 1624.68 234.895 1627.17 234.006C1662.31 222.679 1697.55 212.725 1734.91 208.668C1744.04 207.665 1753.05 207.421 1761.93 207.685C1795.04 208.623 1826.01 215.318 1859.43 220.499" stroke="url(#paint68_linear_267_221)" stroke-miterlimit="10"/>
<path d="M1189.72 233.67C1211.9 219.8 1239.14 219.557 1266.26 220.073C1279.4 220.354 1293.3 219.465 1307.34 218.068C1345.39 214.101 1380.14 206.932 1415.07 216.54C1433.14 221.56 1448.98 231.088 1467.06 238.614C1522.37 261.884 1568.8 241.673 1618.16 224.307C1620.66 223.418 1623.32 222.521 1625.82 221.757C1660.76 210.068 1696.36 200.347 1733.72 196.292C1742.84 195.29 1751.85 194.921 1760.89 195.177C1794 195.99 1825.14 202.674 1858.73 207.97" stroke="url(#paint69_linear_267_221)" stroke-miterlimit="10"/>
<path d="M1188.85 221.011C1210.86 207.155 1238.1 206.913 1265.04 207.314C1278.18 207.595 1291.92 206.716 1305.96 205.32C1343.67 201.497 1379.5 195.024 1413.61 205.175C1431.7 210.569 1447.55 220.219 1465.47 227.876C1520.99 251.63 1567.16 230.187 1616.81 212.061C1619.3 211.173 1621.79 210.285 1624.45 209.387C1659.21 197.462 1695.16 187.976 1732.51 183.798C1741.81 182.787 1750.81 182.419 1759.68 182.559C1792.94 183.238 1824.09 190.045 1857.68 195.34" stroke="url(#paint70_linear_267_221)" stroke-miterlimit="10"/>
<path d="M1187.99 208.477C1209.84 194.759 1236.89 194.278 1263.84 194.678C1276.8 194.844 1290.53 193.966 1304.58 192.695C1341.97 189.142 1378.87 183.364 1412.15 193.933C1430.28 199.7 1446.14 209.472 1463.89 217.137C1519.44 241.384 1565.35 218.71 1615.45 199.813C1617.95 198.925 1620.43 197.913 1623.09 197.015C1657.65 184.729 1693.79 175.487 1731.47 171.292C1740.77 170.282 1749.77 169.913 1758.64 170.053C1792.07 170.599 1823.05 177.539 1856.82 182.824" stroke="url(#paint71_linear_267_221)" stroke-miterlimit="10"/>
<path d="M1187.14 195.943C1208.82 182.364 1235.87 181.758 1262.63 182.044C1275.59 182.21 1289.15 181.341 1303.2 180.071C1340.27 176.788 1378.06 171.588 1410.7 182.691C1429.03 188.946 1444.72 198.725 1462.3 206.397C1518.06 231.127 1563.54 207.233 1614.27 187.556C1616.75 186.544 1619.24 185.657 1621.9 184.635C1656.27 172.113 1692.75 162.98 1730.44 158.787C1739.73 157.777 1748.74 157.409 1757.77 157.415C1791.18 157.837 1822.34 164.765 1856.27 170.04" stroke="url(#paint72_linear_267_221)" stroke-miterlimit="10"/>
<path d="M1186.28 183.412C1207.97 169.839 1234.83 169.119 1261.42 169.415C1308.32 170.1 1365.36 155.467 1409.08 171.464C1427.44 178.09 1443.14 187.99 1460.55 195.794C1516.52 221.004 1561.57 195.893 1612.75 175.45C1649.02 160.953 1688.52 151.159 1729.08 146.561C1773.69 141.492 1812.18 151.019 1855.08 157.803" stroke="url(#paint73_linear_267_221)" stroke-miterlimit="10"/>
<path d="M557.246 656.825C596.536 632.181 644.811 654.665 691.391 643.871C739.303 632.629 737.326 614.489 801.938 598.585C842.776 588.48 965.98 636.99 1008.74 637.153C1060.19 637.216 1084.43 609.395 1135.24 617.242C1165.55 621.96 1195.7 626.687 1226.01 631.404" stroke="url(#paint74_linear_267_221)" stroke-miterlimit="10"/>
<path d="M556.38 644.326C582.461 627.898 612.758 632.367 643.699 633.926C659.085 634.71 674.587 634.738 690.001 631.145C737.761 620.157 736.634 601.967 800.478 587.225C813.213 584.278 833.339 587.054 856.341 591.922C905.12 602.381 966.452 621.656 999.688 624.339C1002.43 624.565 1004.99 624.675 1007.38 624.669C1049.43 624.371 1073.66 605.919 1108.92 603.491C1116.71 602.94 1125.08 603.232 1134.2 604.609C1164.51 609.203 1194.83 614.045 1225.15 618.764" stroke="url(#paint75_linear_267_221)" stroke-miterlimit="10"/>
<path d="M555.513 631.823C581.434 615.524 611.553 619.879 642.486 621.313C657.702 622.107 673.204 622.134 688.628 618.664C736.067 607.941 735.949 589.565 799.035 576.11C811.788 573.411 831.924 576.311 854.765 581.314C903.741 592.141 964.636 610.068 998.346 612.226C1001.09 612.451 1003.65 612.561 1006.03 612.431C1047.87 611.643 1072.47 593.54 1107.73 591.111C1115.52 590.56 1123.88 590.728 1133.01 592.104C1163.47 596.565 1193.8 601.409 1224.12 606.253" stroke="url(#paint76_linear_267_221)" stroke-miterlimit="10"/>
<path d="M554.646 619.322C580.568 603.018 610.508 607.259 641.272 608.702C656.488 609.495 671.812 609.407 687.245 606.061C734.355 595.477 735.264 577.166 797.574 564.75C810.505 562.166 830.498 565.45 853.178 570.587C902.521 581.771 962.81 598.359 996.994 599.991C999.726 600.091 1002.29 600.201 1004.67 600.196C1046.15 599.051 1071.12 581.299 1106.71 578.726C1114.5 578.174 1122.86 578.342 1131.99 579.719C1162.45 584.056 1192.78 589.025 1223.44 593.727" stroke="url(#paint77_linear_267_221)" stroke-miterlimit="10"/>
<path d="M553.771 606.698C579.533 590.524 609.456 594.515 640.059 596.093C655.097 596.77 670.6 596.797 685.863 593.459C732.653 583.14 734.58 564.767 796.123 553.514C809.242 551.169 829.075 554.587 851.594 559.86C901.134 571.411 960.987 586.651 995.645 587.756C998.377 587.856 1000.94 587.966 1003.32 587.836C1044.59 586.201 1069.92 568.799 1105.51 566.225C1113.48 565.663 1121.84 565.831 1130.95 567.083C1161.57 571.287 1191.91 576.257 1222.57 581.084" stroke="url(#paint78_linear_267_221)" stroke-miterlimit="10"/>
<path d="M552.905 594.194C578.507 578.149 608.422 582.017 638.846 583.478C653.885 584.156 669.209 584.068 684.481 580.853C730.95 570.798 733.905 552.49 794.671 542.278C807.969 540.047 827.659 543.849 850.018 549.257C899.754 561.175 959.17 575.065 994.302 575.643C997.034 575.743 999.589 575.729 1001.96 575.598C1043.04 573.598 1068.74 556.546 1104.32 553.846C1112.29 553.285 1120.65 553.452 1129.77 554.705C1160.55 558.775 1190.89 563.871 1221.55 568.699" stroke="url(#paint79_linear_267_221)" stroke-miterlimit="10"/>
<path d="M552.038 581.694C577.47 565.653 607.207 569.406 637.632 570.868C652.671 571.546 667.825 571.466 683.098 568.25C729.237 558.335 733.389 540.08 793.219 531.042C806.535 529.06 826.242 533.112 848.432 538.53C898.365 550.816 957.345 563.356 992.95 563.407C995.674 563.383 998.228 563.368 1000.6 563.238C1041.49 560.871 1067.55 544.045 1103.13 541.343C1111.09 540.781 1119.62 540.939 1128.73 542.068C1159.5 546.014 1189.85 551.235 1220.86 556.045" stroke="url(#paint80_linear_267_221)" stroke-miterlimit="10"/>
<path d="M551.172 569.186C576.614 553.265 606.164 556.778 636.419 558.249C651.288 558.936 666.614 558.847 681.717 555.64C727.544 546.114 732.714 527.8 791.767 519.803C805.262 517.936 824.817 522.247 846.855 527.926C896.985 540.578 955.368 551.901 991.787 551.406C994.51 551.382 997.065 551.367 999.44 551.236C1040.12 548.379 1066.54 531.904 1102.29 529.192C1110.43 528.621 1118.78 528.664 1127.9 529.917C1158.84 533.854 1189.18 538.952 1220.19 543.762" stroke="url(#paint81_linear_267_221)" stroke-miterlimit="10"/>
<path d="M550.305 556.687C575.577 540.77 605.127 544.284 635.205 545.639C650.074 546.327 665.221 546.122 680.333 543.038C725.831 533.652 732.208 515.516 790.314 508.569C803.997 506.942 823.4 511.513 845.269 517.202C895.595 530.222 953.542 540.194 990.435 539.171C993.159 539.147 995.704 539.007 998.08 538.877C1038.39 535.662 1065.35 519.528 1101.1 516.69C1109.22 515.993 1117.58 516.161 1126.69 517.289C1157.63 521.103 1188.15 526.317 1219.15 531.128" stroke="url(#paint82_linear_267_221)" stroke-miterlimit="10"/>
<path d="M549.431 544.066C574.544 528.278 603.907 531.552 633.985 532.907C648.685 533.604 663.831 533.398 678.944 530.313C724.121 521.192 731.695 503.11 788.685 497.224C802.556 495.836 821.808 500.667 843.507 506.367C894.209 519.871 951.54 528.375 988.907 526.824C991.622 526.675 994.177 526.66 996.543 526.405C1036.66 522.823 1063.98 506.914 1099.72 504.075C1107.85 503.378 1116.38 503.536 1125.48 504.54C1156.57 508.22 1187.1 513.435 1218.11 518.372" stroke="url(#paint83_linear_267_221)" stroke-miterlimit="10"/>
<path d="M548.565 531.56C573.517 515.902 602.872 519.052 632.772 520.291C647.463 520.863 662.44 520.667 677.562 517.705C722.418 508.849 731.028 490.956 787.233 485.988C801.282 484.715 820.391 489.931 841.93 495.766C892.828 509.638 949.562 516.923 987.565 514.71C990.28 514.56 992.825 514.421 995.192 514.165C1035.12 510.217 1062.63 494.669 1098.53 491.694C1106.66 490.997 1115.19 491.155 1124.29 492.158C1155.38 495.714 1185.91 501.055 1217.26 505.975" stroke="url(#paint84_linear_267_221)" stroke-miterlimit="10"/>
<path d="M547.697 519.062C572.481 503.408 601.827 506.433 631.558 507.682C646.249 508.253 661.226 508.057 676.178 505.104C720.713 496.512 730.53 478.797 785.78 474.757C800.017 473.723 818.965 479.075 840.343 485.046C891.438 499.287 947.745 505.343 986.213 502.476C988.928 502.327 991.473 502.187 993.84 501.931C1033.57 497.616 1061.44 482.293 1097.52 479.307C1105.81 478.6 1114.33 478.633 1123.26 479.647C1154.51 483.069 1185.04 488.411 1216.4 493.331" stroke="url(#paint85_linear_267_221)" stroke-miterlimit="10"/>
<path d="M546.832 506.553C571.625 491.019 600.784 493.804 630.345 495.062C644.867 495.643 659.845 495.446 674.806 492.616C719.181 484.156 730.213 466.746 784.337 463.643C798.762 462.85 817.559 468.462 838.775 474.568C890.067 489.177 945.938 493.879 984.879 490.483C987.586 490.209 990.131 490.068 992.498 489.813C1031.86 485.14 1060.26 470.034 1096.34 467.047C1104.63 466.339 1113.15 466.372 1122.25 467.377C1153.66 470.665 1184.21 476.133 1215.56 481.054" stroke="url(#paint86_linear_267_221)" stroke-miterlimit="10"/>
<path d="M545.964 494.053C570.588 478.523 599.578 481.317 629.131 482.45C643.653 483.031 658.452 482.718 673.423 480.012C717.477 471.817 729.723 454.71 782.884 452.411C797.487 451.733 816.311 457.722 837.188 463.848C888.686 478.952 943.95 482.307 983.527 478.247C986.234 477.973 988.77 477.708 991.137 477.452C1030.3 472.286 1059.07 457.656 1095.14 454.542C1103.44 453.835 1111.96 453.867 1121.05 454.747C1152.45 457.911 1183 463.505 1214.69 468.409" stroke="url(#paint87_linear_267_221)" stroke-miterlimit="10"/>
<path d="M545.092 481.425C569.556 466.025 598.528 468.57 627.912 469.712C642.264 470.302 657.233 469.979 672.034 467.282C715.768 459.353 729.22 442.426 781.425 441.057C796.216 440.618 814.888 446.868 835.605 453.13C887.298 468.602 942.136 470.727 982.178 466.012C984.885 465.737 987.422 465.472 989.78 465.091C1028.74 459.558 1057.88 445.155 1093.94 442.04C1102.24 441.332 1110.93 441.355 1120.02 442.235C1151.58 445.264 1182.14 450.859 1213.84 455.889" stroke="url(#paint88_linear_267_221)" stroke-miterlimit="10"/>
<path d="M544.226 468.927C568.53 453.656 597.485 455.951 626.699 457.103C641.052 457.693 655.842 457.254 670.653 454.681C714.056 446.892 728.733 430.394 779.973 429.829C794.952 429.632 813.463 436.017 834.019 442.415C886.079 458.248 940.15 459.159 980.828 453.78C983.525 453.38 986.062 453.115 988.429 452.859C1027.2 446.957 1056.7 432.905 1092.93 429.654C1101.39 428.936 1109.91 428.969 1119 429.723C1150.55 432.629 1181.28 438.341 1212.97 443.246" stroke="url(#paint89_linear_267_221)" stroke-miterlimit="10"/>
<path d="M543.361 456.425C567.496 441.158 596.282 443.463 625.487 444.49C639.831 444.954 654.461 444.65 669.272 442.075C712.354 434.552 728.246 418.359 778.522 418.6C793.688 418.643 812.047 425.289 832.603 431.689C884.868 448.016 938.494 447.445 979.816 441.526C982.514 441.126 985.05 440.86 987.409 440.479C1025.98 434.209 1055.67 420.394 1092.07 417.132C1100.54 416.414 1109.22 416.312 1118.14 417.201C1149.85 419.972 1180.58 425.685 1212.46 430.707" stroke="url(#paint90_linear_267_221)" stroke-miterlimit="10"/>
<path d="M542.496 443.916C566.64 428.771 595.238 430.836 624.275 431.871C638.449 432.345 653.08 432.04 667.89 429.465C710.651 422.209 727.767 406.448 777.06 407.245C792.414 407.528 810.62 414.435 831.016 420.97C883.478 437.666 936.676 435.862 978.463 429.287C981.161 428.887 983.689 428.497 986.217 428.106C1024.42 421.478 1054.64 407.882 1091.04 404.619C1099.51 403.9 1108.19 403.798 1117.27 404.553C1148.98 407.199 1179.72 413.038 1211.76 418.052" stroke="url(#paint91_linear_267_221)" stroke-miterlimit="10"/>
<path d="M541.634 431.387C565.608 416.252 594.198 418.191 623.064 419.236C637.238 419.71 651.86 419.28 666.51 416.839C708.94 409.727 727.279 394.4 775.607 396.004C791.148 396.528 809.203 403.695 829.429 410.239C882.087 427.301 934.697 424.399 977.11 417.036C979.807 416.636 982.335 416.246 984.854 415.73C1022.86 408.737 1053.45 395.497 1089.84 392.109C1098.3 391.265 1106.99 391.288 1116.07 392.043C1147.94 394.555 1178.67 400.394 1210.73 405.532" stroke="url(#paint92_linear_267_221)" stroke-miterlimit="10"/>
<path d="M540.763 418.732C564.577 403.732 593.157 405.546 621.845 406.475C635.85 406.958 650.471 406.528 665.121 404.088C707.23 397.245 726.961 382.345 773.976 384.649C789.874 385.405 807.607 392.84 827.672 399.518C880.535 417.07 932.708 412.811 975.586 404.796C978.275 404.271 980.803 403.88 983.331 403.49C1021.14 396.131 1052.08 383.123 1088.64 379.726C1097.27 378.873 1105.96 378.896 1115.04 379.526C1147.07 382.028 1177.81 387.867 1210.02 392.871" stroke="url(#paint93_linear_267_221)" stroke-miterlimit="10"/>
<path d="M539.902 406.2C563.554 391.335 591.947 392.909 620.635 393.838C634.64 394.321 649.082 393.776 663.741 391.461C705.528 384.887 726.483 370.422 772.524 373.408C788.609 374.404 806.19 382.098 826.085 388.786C879.145 406.703 930.889 401.213 974.232 392.544C976.921 392.02 979.449 391.629 981.968 391.113C1019.59 383.514 1050.88 370.614 1087.44 367.216C1096.07 366.364 1104.75 366.262 1113.83 367.017C1145.86 369.394 1176.61 375.357 1208.99 380.352" stroke="url(#paint94_linear_267_221)" stroke-miterlimit="10"/>
<path d="M539.042 393.666C562.524 378.812 590.908 380.26 619.426 381.199C633.261 381.691 647.873 381.137 662.362 378.831C703.818 372.402 726.005 358.499 771.072 362.166C787.353 363.528 804.774 371.356 824.499 378.052C877.763 396.459 928.902 389.622 972.879 380.292C975.567 379.767 978.086 379.251 980.605 378.736C1017.86 370.781 1049.69 358.229 1086.24 354.707C1094.87 353.855 1103.72 353.743 1112.62 354.382C1144.81 356.625 1175.56 362.588 1207.95 367.707" stroke="url(#paint95_linear_267_221)" stroke-miterlimit="10"/>
<path d="M538.18 381.124C561.671 366.397 589.876 367.73 618.215 368.553C632.041 368.92 646.484 368.375 660.991 366.32C702.125 360.162 725.534 346.695 769.627 351.043C786.095 352.646 803.355 360.607 822.928 367.562C876.389 386.332 927.108 378.39 971.54 368.283C974.22 367.633 976.748 367.243 979.258 366.603C1016.32 358.283 1048.33 345.974 1085.22 342.434C1094.02 341.573 1102.7 341.471 1111.77 341.975C1143.94 344.093 1174.87 350.171 1207.43 355.281" stroke="url(#paint96_linear_267_221)" stroke-miterlimit="10"/>
<path d="M537.311 368.465C560.632 353.75 588.658 354.966 616.997 355.79C630.823 356.157 645.096 355.622 659.603 353.567C700.415 347.678 725.057 334.773 768.166 339.677C784.822 341.521 801.929 349.741 821.333 356.704C874.998 375.963 925.28 366.666 970.177 355.907C972.687 355.267 975.376 354.742 977.886 354.102C1014.75 345.418 1047.13 333.467 1084.01 329.803C1092.81 328.941 1101.66 328.83 1110.55 329.344C1142.89 331.328 1173.82 337.405 1206.38 342.514" stroke="url(#paint97_linear_267_221)" stroke-miterlimit="10"/>
<path d="M536.451 355.924C559.611 341.346 587.628 342.438 615.789 343.145C629.445 343.522 643.717 342.987 658.223 340.933C698.705 335.189 724.587 322.971 766.713 328.431C783.565 330.64 800.512 338.993 819.755 346.09C873.625 365.836 923.478 355.31 968.831 343.776C971.341 343.136 974.03 342.611 976.54 341.971C1013.21 332.923 1045.94 321.206 1082.82 317.543C1091.62 316.682 1100.46 316.446 1109.53 316.951C1142.03 318.8 1172.79 325.011 1205.52 330.11" stroke="url(#paint98_linear_267_221)" stroke-miterlimit="10"/>
<path d="M535.591 343.386C558.59 328.945 586.589 329.787 614.58 330.504C628.236 330.881 642.499 330.221 656.844 328.302C697.173 322.819 724.109 311.047 765.261 317.188C782.301 319.637 799.095 328.248 818.168 335.353C872.235 355.463 921.49 343.716 967.655 331.638C970.165 330.998 972.845 330.349 975.355 329.708C1011.83 320.297 1044.92 308.814 1081.8 305.151C1090.6 304.291 1099.44 304.055 1108.5 304.559C1140.99 306.283 1171.93 312.484 1204.84 317.698" stroke="url(#paint99_linear_267_221)" stroke-miterlimit="10"/>
<path d="M534.732 330.845C557.56 316.416 585.551 317.134 613.371 317.86C626.857 318.247 641.121 317.587 655.466 315.669C695.472 310.456 723.47 299.255 763.808 305.941C780.874 308.765 797.678 317.5 816.59 324.738C870.862 345.334 919.688 332.36 966.308 319.507C968.81 318.743 971.49 318.093 974 317.453C1010.28 307.804 1043.73 296.555 1080.77 292.759C1089.74 291.889 1098.58 291.654 1107.47 292.043C1140.12 293.632 1171.06 299.958 1203.97 305.171" stroke="url(#paint100_linear_267_221)" stroke-miterlimit="10"/>
<path d="M533.871 318.307C556.708 304.007 584.35 304.618 612.161 305.22C625.647 305.606 639.732 304.831 654.086 303.038C693.761 297.97 723 287.457 762.355 294.698C779.617 297.887 796.26 306.754 815.002 314C869.47 334.959 917.876 320.882 964.952 307.255C967.453 306.49 970.133 305.841 972.635 305.076C1008.55 295.073 1042.53 284.048 1079.57 280.254C1088.53 279.384 1097.38 279.149 1106.43 279.528C1139.07 280.993 1170.03 287.442 1203.09 292.521" stroke="url(#paint101_linear_267_221)" stroke-miterlimit="10"/>
<path d="M533.003 305.647C555.67 291.359 583.303 291.846 610.944 292.457C624.421 292.719 638.346 292.078 652.699 290.286C692.052 285.488 722.531 275.661 760.895 283.332C778.353 286.886 794.665 295.895 813.407 303.14C868.08 324.585 916.05 309.156 963.59 294.879C966.091 294.115 968.761 293.341 971.271 292.701C1006.99 282.335 1041.16 271.678 1078.36 267.751C1087.32 266.757 1096.33 266.512 1105.22 266.901C1138.02 268.232 1168.97 274.68 1202.22 279.873" stroke="url(#paint102_linear_267_221)" stroke-miterlimit="10"/>
<path d="M532.144 293.107C554.649 278.957 582.264 279.194 609.735 279.815C623.042 280.087 637.127 279.313 651.319 277.655C690.342 273.002 721.892 263.872 759.272 272.096C776.918 275.89 793.077 285.156 811.659 292.534C866.367 314.473 914.077 297.81 962.072 282.761C964.573 281.997 967.244 281.223 969.745 280.459C1005.27 269.73 1039.79 259.308 1076.99 255.382C1085.95 254.389 1094.96 254.144 1103.85 254.533C1136.81 255.605 1167.77 262.301 1201.02 267.494" stroke="url(#paint103_linear_267_221)" stroke-miterlimit="10"/>
<path d="M531.286 280.569C553.63 266.557 581.066 266.679 608.528 267.175C621.835 267.447 635.75 266.682 649.942 265.025C688.642 260.643 721.254 252.083 757.821 260.852C775.493 265.02 791.662 274.408 810.073 281.794C864.986 304.219 912.267 286.331 960.717 270.509C963.21 269.62 965.881 268.846 968.382 268.082C1003.72 257.117 1038.59 246.803 1075.96 242.87C1085.09 241.867 1093.93 241.632 1102.98 241.887C1135.92 242.834 1167.06 249.52 1200.32 254.837" stroke="url(#paint104_linear_267_221)" stroke-miterlimit="10"/>
<path d="M530.425 268.03C552.769 254.022 580.026 254.028 607.318 254.534C620.455 254.815 634.37 254.051 648.57 252.519C686.948 248.407 720.622 240.418 756.367 249.606C774.244 254.263 790.243 263.659 808.494 271.177C863.603 293.963 910.464 274.975 959.369 258.38C961.862 257.492 964.532 256.718 967.024 255.83C1002.16 244.502 1037.4 234.548 1074.76 230.491C1083.89 229.489 1092.9 229.244 1101.78 229.509C1134.89 230.447 1165.86 237.141 1199.28 242.323" stroke="url(#paint105_linear_267_221)" stroke-miterlimit="10"/>
<path d="M529.566 255.493C551.749 241.623 578.987 241.381 606.11 241.896C619.247 242.177 633.153 241.289 647.192 239.892C685.239 235.924 719.992 228.755 754.915 238.363C772.988 243.384 788.827 252.912 806.908 260.437C862.221 283.707 908.654 263.496 958.014 246.13C960.506 245.242 963.168 244.344 965.669 243.58C1000.61 231.891 1036.21 222.171 1073.57 218.116C1082.69 217.114 1091.7 216.745 1100.74 217C1133.85 217.813 1164.99 224.497 1198.58 229.793" stroke="url(#paint106_linear_267_221)" stroke-miterlimit="10"/>
<path d="M528.7 242.834C550.711 228.978 577.95 228.737 604.893 229.137C618.03 229.418 631.766 228.539 645.805 227.143C683.521 223.321 719.345 216.847 753.455 226.998C771.554 232.392 787.401 242.042 805.321 249.7C860.84 273.453 907.013 252.01 956.658 233.884C959.15 232.996 961.642 232.108 964.304 231.21C999.059 219.285 1035.01 209.799 1072.36 205.622C1081.66 204.611 1090.66 204.242 1099.53 204.382C1132.79 205.061 1163.94 211.868 1197.53 217.164" stroke="url(#paint107_linear_267_221)" stroke-miterlimit="10"/>
<path d="M527.843 230.3C549.693 216.583 576.744 216.101 603.687 216.502C616.645 216.667 630.381 215.789 644.429 214.518C681.822 210.966 718.717 205.187 752.005 215.756C770.131 221.523 785.986 231.295 803.737 238.96C859.291 263.207 905.204 240.533 955.303 221.636C957.795 220.748 960.279 219.736 962.94 218.839C997.498 206.553 1033.63 197.31 1071.32 193.115C1080.62 192.105 1089.62 191.737 1098.49 191.876C1131.92 192.422 1162.9 199.362 1196.67 204.647" stroke="url(#paint108_linear_267_221)" stroke-miterlimit="10"/>
<path d="M526.985 217.766C548.674 204.187 575.716 203.581 602.48 203.867C615.438 204.033 629.003 203.164 643.051 201.894C680.122 198.611 717.909 193.411 750.553 204.514C768.884 210.769 784.571 220.548 802.151 228.22C857.91 252.95 903.394 229.056 954.118 209.38C956.601 208.368 959.093 207.48 961.746 206.459C996.115 193.937 1032.6 184.803 1070.29 180.61C1079.58 179.6 1088.59 179.232 1097.61 179.238C1131.03 179.66 1162.19 186.589 1196.12 191.863" stroke="url(#paint109_linear_267_221)" stroke-miterlimit="10"/>
<path d="M526.129 205.236C547.817 191.662 574.68 190.942 601.274 191.238C648.166 191.923 705.208 177.29 748.932 193.287C767.29 199.913 782.985 209.813 800.404 217.617C856.368 242.827 901.422 217.716 952.601 197.273C988.872 182.777 1028.37 172.982 1068.93 168.385C1113.54 163.315 1152.03 172.842 1194.93 179.627" stroke="url(#paint110_linear_267_221)" stroke-miterlimit="10"/>
<defs>
<linearGradient id="paint0_linear_267_221" x1="258.047" y1="672.572" x2="254.902" y2="614.762" gradientUnits="userSpaceOnUse">
<stop stop-color="#D3D3D3"/>
<stop offset="1"/>
</linearGradient>
<linearGradient id="paint1_linear_267_221" x1="257.184" y1="660.04" x2="254.111" y2="603.593" gradientUnits="userSpaceOnUse">
<stop stop-color="white"/>
<stop offset="1"/>
</linearGradient>
<linearGradient id="paint2_linear_267_221" x1="256.32" y1="647.504" x2="253.318" y2="592.404" gradientUnits="userSpaceOnUse">
<stop stop-color="white"/>
<stop offset="1"/>
</linearGradient>
<linearGradient id="paint3_linear_267_221" x1="255.457" y1="634.97" x2="252.527" y2="581.211" gradientUnits="userSpaceOnUse">
<stop stop-color="white"/>
<stop offset="1"/>
</linearGradient>
<linearGradient id="paint4_linear_267_221" x1="254.594" y1="622.437" x2="251.735" y2="570.006" gradientUnits="userSpaceOnUse">
<stop stop-color="white"/>
<stop offset="1"/>
</linearGradient>
<linearGradient id="paint5_linear_267_221" x1="253.73" y1="609.9" x2="250.941" y2="558.79" gradientUnits="userSpaceOnUse">
<stop stop-color="white"/>
<stop offset="1"/>
</linearGradient>
<linearGradient id="paint6_linear_267_221" x1="252.867" y1="597.366" x2="250.148" y2="547.564" gradientUnits="userSpaceOnUse">
<stop stop-color="white"/>
<stop offset="1"/>
</linearGradient>
<linearGradient id="paint7_linear_267_221" x1="252.004" y1="584.827" x2="249.354" y2="536.327" gradientUnits="userSpaceOnUse">
<stop stop-color="white"/>
<stop offset="1"/>
</linearGradient>
<linearGradient id="paint8_linear_267_221" x1="251.141" y1="572.293" x2="248.56" y2="525.082" gradientUnits="userSpaceOnUse">
<stop stop-color="white"/>
<stop offset="1"/>
</linearGradient>
<linearGradient id="paint9_linear_267_221" x1="250.279" y1="559.762" x2="247.766" y2="513.832" gradientUnits="userSpaceOnUse">
<stop stop-color="white"/>
<stop offset="1"/>
</linearGradient>
<linearGradient id="paint10_linear_267_221" x1="249.414" y1="547.224" x2="246.97" y2="502.566" gradientUnits="userSpaceOnUse">
<stop stop-color="white"/>
<stop offset="1"/>
</linearGradient>
<linearGradient id="paint11_linear_267_221" x1="248.551" y1="534.69" x2="246.174" y2="491.293" gradientUnits="userSpaceOnUse">
<stop stop-color="white"/>
<stop offset="1"/>
</linearGradient>
<linearGradient id="paint12_linear_267_221" x1="247.688" y1="522.149" x2="245.378" y2="480.005" gradientUnits="userSpaceOnUse">
<stop stop-color="white"/>
<stop offset="1"/>
</linearGradient>
<linearGradient id="paint13_linear_267_221" x1="246.825" y1="509.614" x2="244.58" y2="468.696" gradientUnits="userSpaceOnUse">
<stop stop-color="white"/>
<stop offset="1"/>
</linearGradient>
<linearGradient id="paint14_linear_267_221" x1="245.964" y1="497.078" x2="243.782" y2="457.336" gradientUnits="userSpaceOnUse">
<stop stop-color="#F9F9F9"/>
<stop offset="1"/>
</linearGradient>
<linearGradient id="paint15_linear_267_221" x1="245.1" y1="484.546" x2="242.979" y2="445.932" gradientUnits="userSpaceOnUse">
<stop stop-color="white"/>
<stop offset="1"/>
</linearGradient>
<linearGradient id="paint16_linear_267_221" x1="244.239" y1="472.01" x2="242.177" y2="434.486" gradientUnits="userSpaceOnUse">
<stop stop-color="white"/>
<stop offset="1"/>
</linearGradient>
<linearGradient id="paint17_linear_267_221" x1="243.405" y1="459.897" x2="241.376" y2="423.002" gradientUnits="userSpaceOnUse">
<stop stop-color="white"/>
<stop offset="1"/>
</linearGradient>
<linearGradient id="paint18_linear_267_221" x1="242.613" y1="448.373" x2="240.585" y2="411.477" gradientUnits="userSpaceOnUse">
<stop stop-color="white"/>
<stop offset="1"/>
</linearGradient>
<linearGradient id="paint19_linear_267_221" x1="241.832" y1="436.952" x2="239.796" y2="399.923" gradientUnits="userSpaceOnUse">
<stop stop-color="white"/>
<stop offset="1"/>
</linearGradient>
<linearGradient id="paint20_linear_267_221" x1="241.054" y1="425.623" x2="239.005" y2="388.34" gradientUnits="userSpaceOnUse">
<stop stop-color="white"/>
<stop offset="1"/>
</linearGradient>
<linearGradient id="paint21_linear_267_221" x1="240.282" y1="414.374" x2="238.213" y2="376.727" gradientUnits="userSpaceOnUse">
<stop stop-color="white"/>
<stop offset="1"/>
</linearGradient>
<linearGradient id="paint22_linear_267_221" x1="239.514" y1="403.188" x2="237.42" y2="365.082" gradientUnits="userSpaceOnUse">
<stop stop-color="white"/>
<stop offset="1"/>
</linearGradient>
<linearGradient id="paint23_linear_267_221" x1="238.752" y1="392.072" x2="236.629" y2="353.417" gradientUnits="userSpaceOnUse">
<stop stop-color="white"/>
<stop offset="1"/>
</linearGradient>
<linearGradient id="paint24_linear_267_221" x1="237.992" y1="381.002" x2="235.835" y2="341.718" gradientUnits="userSpaceOnUse">
<stop stop-color="white"/>
<stop offset="1"/>
</linearGradient>
<linearGradient id="paint25_linear_267_221" x1="237.237" y1="369.982" x2="235.042" y2="329.992" gradientUnits="userSpaceOnUse">
<stop stop-color="white"/>
<stop offset="1"/>
</linearGradient>
<linearGradient id="paint26_linear_267_221" x1="236.483" y1="358.998" x2="234.247" y2="318.232" gradientUnits="userSpaceOnUse">
<stop stop-color="white"/>
<stop offset="1"/>
</linearGradient>
<linearGradient id="paint27_linear_267_221" x1="235.733" y1="348.052" x2="233.451" y2="306.44" gradientUnits="userSpaceOnUse">
<stop stop-color="white"/>
<stop offset="1"/>
</linearGradient>
<linearGradient id="paint28_linear_267_221" x1="234.986" y1="337.138" x2="232.655" y2="294.613" gradientUnits="userSpaceOnUse">
<stop stop-color="white"/>
<stop offset="1"/>
</linearGradient>
<linearGradient id="paint29_linear_267_221" x1="234.24" y1="326.246" x2="231.857" y2="282.744" gradientUnits="userSpaceOnUse">
<stop stop-color="white"/>
<stop offset="1"/>
</linearGradient>
<linearGradient id="paint30_linear_267_221" x1="233.495" y1="315.378" x2="231.056" y2="270.83" gradientUnits="userSpaceOnUse">
<stop stop-color="white"/>
<stop offset="1"/>
</linearGradient>
<linearGradient id="paint31_linear_267_221" x1="232.751" y1="304.53" x2="230.253" y2="258.866" gradientUnits="userSpaceOnUse">
<stop stop-color="white"/>
<stop offset="1"/>
</linearGradient>
<linearGradient id="paint32_linear_267_221" x1="232.011" y1="293.703" x2="229.447" y2="246.832" gradientUnits="userSpaceOnUse">
<stop stop-color="white"/>
<stop offset="1"/>
</linearGradient>
<linearGradient id="paint33_linear_267_221" x1="231.271" y1="282.894" x2="228.641" y2="234.769" gradientUnits="userSpaceOnUse">
<stop stop-color="white"/>
<stop offset="1"/>
</linearGradient>
<linearGradient id="paint34_linear_267_221" x1="230.533" y1="272.099" x2="227.831" y2="222.64" gradientUnits="userSpaceOnUse">
<stop stop-color="white"/>
<stop offset="1"/>
</linearGradient>
<linearGradient id="paint35_linear_267_221" x1="229.796" y1="261.342" x2="227.014" y2="210.39" gradientUnits="userSpaceOnUse">
<stop stop-color="#DBDBDB"/>
<stop offset="1"/>
</linearGradient>
<linearGradient id="paint36_linear_267_221" x1="229.058" y1="250.546" x2="226.181" y2="197.791" gradientUnits="userSpaceOnUse">
<stop stop-color="#DBDBDB"/>
<stop offset="1"/>
</linearGradient>
<linearGradient id="paint37_linear_267_221" x1="1552.12" y1="628.399" x2="1548.97" y2="570.589" gradientUnits="userSpaceOnUse">
<stop stop-color="white"/>
<stop offset="1"/>
</linearGradient>
<linearGradient id="paint38_linear_267_221" x1="1551.26" y1="615.866" x2="1548.18" y2="559.42" gradientUnits="userSpaceOnUse">
<stop stop-color="white"/>
<stop offset="1"/>
</linearGradient>
<linearGradient id="paint39_linear_267_221" x1="1550.4" y1="603.331" x2="1547.38" y2="548.231" gradientUnits="userSpaceOnUse">
<stop stop-color="white"/>
<stop offset="1"/>
</linearGradient>
<linearGradient id="paint40_linear_267_221" x1="1549.53" y1="590.797" x2="1546.59" y2="537.038" gradientUnits="userSpaceOnUse">
<stop stop-color="white"/>
<stop offset="1"/>
</linearGradient>
<linearGradient id="paint41_linear_267_221" x1="1548.67" y1="578.264" x2="1545.8" y2="525.834" gradientUnits="userSpaceOnUse">
<stop stop-color="white"/>
<stop offset="1"/>
</linearGradient>
<linearGradient id="paint42_linear_267_221" x1="1547.81" y1="565.727" x2="1545.01" y2="514.618" gradientUnits="userSpaceOnUse">
<stop stop-color="white"/>
<stop offset="1"/>
</linearGradient>
<linearGradient id="paint43_linear_267_221" x1="1546.94" y1="553.194" x2="1544.21" y2="503.392" gradientUnits="userSpaceOnUse">
<stop stop-color="white"/>
<stop offset="1"/>
</linearGradient>
<linearGradient id="paint44_linear_267_221" x1="1546.08" y1="540.653" x2="1543.42" y2="492.153" gradientUnits="userSpaceOnUse">
<stop stop-color="white"/>
<stop offset="1"/>
</linearGradient>
<linearGradient id="paint45_linear_267_221" x1="1545.22" y1="528.12" x2="1542.63" y2="480.91" gradientUnits="userSpaceOnUse">
<stop stop-color="white"/>
<stop offset="1"/>
</linearGradient>
<linearGradient id="paint46_linear_267_221" x1="1544.36" y1="515.589" x2="1541.83" y2="469.659" gradientUnits="userSpaceOnUse">
<stop stop-color="white"/>
<stop offset="1"/>
</linearGradient>
<linearGradient id="paint47_linear_267_221" x1="1543.49" y1="503.051" x2="1541.04" y2="458.393" gradientUnits="userSpaceOnUse">
<stop stop-color="white"/>
<stop offset="1"/>
</linearGradient>
<linearGradient id="paint48_linear_267_221" x1="1542.63" y1="490.518" x2="1540.24" y2="447.121" gradientUnits="userSpaceOnUse">
<stop stop-color="white"/>
<stop offset="1"/>
</linearGradient>
<linearGradient id="paint49_linear_267_221" x1="1541.76" y1="477.976" x2="1539.45" y2="435.832" gradientUnits="userSpaceOnUse">
<stop stop-color="white"/>
<stop offset="1"/>
</linearGradient>
<linearGradient id="paint50_linear_267_221" x1="1540.9" y1="465.441" x2="1538.65" y2="424.523" gradientUnits="userSpaceOnUse">
<stop stop-color="white"/>
<stop offset="1"/>
</linearGradient>
<linearGradient id="paint51_linear_267_221" x1="1540.04" y1="452.905" x2="1537.85" y2="413.163" gradientUnits="userSpaceOnUse">
<stop stop-color="white"/>
<stop offset="1"/>
</linearGradient>
<linearGradient id="paint52_linear_267_221" x1="1539.18" y1="440.373" x2="1537.05" y2="401.759" gradientUnits="userSpaceOnUse">
<stop stop-color="white"/>
<stop offset="1"/>
</linearGradient>
<linearGradient id="paint53_linear_267_221" x1="1538.31" y1="427.837" x2="1536.24" y2="390.313" gradientUnits="userSpaceOnUse">
<stop stop-color="white"/>
<stop offset="1"/>
</linearGradient>
<linearGradient id="paint54_linear_267_221" x1="1537.48" y1="415.723" x2="1535.45" y2="378.829" gradientUnits="userSpaceOnUse">
<stop stop-color="white"/>
<stop offset="1"/>
</linearGradient>
<linearGradient id="paint55_linear_267_221" x1="1536.69" y1="404.2" x2="1534.65" y2="367.304" gradientUnits="userSpaceOnUse">
<stop stop-color="white"/>
<stop offset="1"/>
</linearGradient>
<linearGradient id="paint56_linear_267_221" x1="1535.9" y1="392.779" x2="1533.86" y2="355.751" gradientUnits="userSpaceOnUse">
<stop stop-color="white"/>
<stop offset="1"/>
</linearGradient>
<linearGradient id="paint57_linear_267_221" x1="1535.13" y1="381.45" x2="1533.07" y2="344.167" gradientUnits="userSpaceOnUse">
<stop stop-color="white"/>
<stop offset="1"/>
</linearGradient>
<linearGradient id="paint58_linear_267_221" x1="1534.36" y1="370.201" x2="1532.28" y2="332.554" gradientUnits="userSpaceOnUse">
<stop stop-color="white"/>
<stop offset="1"/>
</linearGradient>
<linearGradient id="paint59_linear_267_221" x1="1533.59" y1="359.015" x2="1531.49" y2="320.91" gradientUnits="userSpaceOnUse">
<stop stop-color="white"/>
<stop offset="1"/>
</linearGradient>
<linearGradient id="paint60_linear_267_221" x1="1532.83" y1="347.899" x2="1530.7" y2="309.244" gradientUnits="userSpaceOnUse">
<stop stop-color="white"/>
<stop offset="1"/>
</linearGradient>
<linearGradient id="paint61_linear_267_221" x1="1532.07" y1="336.829" x2="1529.9" y2="297.546" gradientUnits="userSpaceOnUse">
<stop stop-color="white"/>
<stop offset="1"/>
</linearGradient>
<linearGradient id="paint62_linear_267_221" x1="1531.31" y1="325.809" x2="1529.11" y2="285.819" gradientUnits="userSpaceOnUse">
<stop stop-color="white"/>
<stop offset="1"/>
</linearGradient>
<linearGradient id="paint63_linear_267_221" x1="1530.56" y1="314.825" x2="1528.32" y2="274.059" gradientUnits="userSpaceOnUse">
<stop stop-color="white"/>
<stop offset="1"/>
</linearGradient>
<linearGradient id="paint64_linear_267_221" x1="1529.81" y1="303.879" x2="1527.52" y2="262.268" gradientUnits="userSpaceOnUse">
<stop stop-color="white"/>
<stop offset="1"/>
</linearGradient>
<linearGradient id="paint65_linear_267_221" x1="1529.06" y1="292.965" x2="1526.72" y2="250.44" gradientUnits="userSpaceOnUse">
<stop stop-color="white"/>
<stop offset="1"/>
</linearGradient>
<linearGradient id="paint66_linear_267_221" x1="1528.32" y1="282.073" x2="1525.92" y2="238.571" gradientUnits="userSpaceOnUse">
<stop stop-color="white"/>
<stop offset="1"/>
</linearGradient>
<linearGradient id="paint67_linear_267_221" x1="1527.57" y1="271.206" x2="1525.12" y2="226.657" gradientUnits="userSpaceOnUse">
<stop stop-color="white"/>
<stop offset="1"/>
</linearGradient>
<linearGradient id="paint68_linear_267_221" x1="1526.83" y1="260.357" x2="1524.32" y2="214.693" gradientUnits="userSpaceOnUse">
<stop stop-color="white"/>
<stop offset="1"/>
</linearGradient>
<linearGradient id="paint69_linear_267_221" x1="1526.09" y1="249.53" x2="1523.51" y2="202.66" gradientUnits="userSpaceOnUse">
<stop stop-color="white"/>
<stop offset="1"/>
</linearGradient>
<linearGradient id="paint70_linear_267_221" x1="1525.35" y1="238.72" x2="1522.71" y2="190.595" gradientUnits="userSpaceOnUse">
<stop stop-color="white"/>
<stop offset="1"/>
</linearGradient>
<linearGradient id="paint71_linear_267_221" x1="1524.61" y1="227.925" x2="1521.9" y2="178.467" gradientUnits="userSpaceOnUse">
<stop stop-color="white"/>
<stop offset="1"/>
</linearGradient>
<linearGradient id="paint72_linear_267_221" x1="1523.87" y1="217.169" x2="1521.08" y2="166.217" gradientUnits="userSpaceOnUse">
<stop stop-color="#E6E6E6"/>
<stop offset="1"/>
</linearGradient>
<linearGradient id="paint73_linear_267_221" x1="1523.14" y1="206.374" x2="1520.25" y2="153.618" gradientUnits="userSpaceOnUse">
<stop stop-color="#D5D5D5"/>
<stop offset="1"/>
</linearGradient>
<linearGradient id="paint74_linear_267_221" x1="891.974" y1="650.222" x2="888.815" y2="592.412" gradientUnits="userSpaceOnUse">
<stop stop-color="white"/>
<stop offset="1"/>
</linearGradient>
<linearGradient id="paint75_linear_267_221" x1="891.111" y1="637.69" x2="888.025" y2="581.244" gradientUnits="userSpaceOnUse">
<stop stop-color="white"/>
<stop offset="1"/>
</linearGradient>
<linearGradient id="paint76_linear_267_221" x1="890.248" y1="625.154" x2="887.234" y2="570.054" gradientUnits="userSpaceOnUse">
<stop stop-color="white"/>
<stop offset="1"/>
</linearGradient>
<linearGradient id="paint77_linear_267_221" x1="889.384" y1="612.62" x2="886.442" y2="558.861" gradientUnits="userSpaceOnUse">
<stop stop-color="white"/>
<stop offset="1"/>
</linearGradient>
<linearGradient id="paint78_linear_267_221" x1="888.522" y1="600.087" x2="885.65" y2="547.657" gradientUnits="userSpaceOnUse">
<stop stop-color="white"/>
<stop offset="1"/>
</linearGradient>
<linearGradient id="paint79_linear_267_221" x1="887.658" y1="587.551" x2="884.858" y2="536.441" gradientUnits="userSpaceOnUse">
<stop stop-color="white"/>
<stop offset="1"/>
</linearGradient>
<linearGradient id="paint80_linear_267_221" x1="886.794" y1="575.017" x2="884.064" y2="525.215" gradientUnits="userSpaceOnUse">
<stop stop-color="white"/>
<stop offset="1"/>
</linearGradient>
<linearGradient id="paint81_linear_267_221" x1="885.931" y1="562.476" x2="883.271" y2="513.977" gradientUnits="userSpaceOnUse">
<stop stop-color="white"/>
<stop offset="1"/>
</linearGradient>
<linearGradient id="paint82_linear_267_221" x1="885.066" y1="549.943" x2="882.476" y2="502.733" gradientUnits="userSpaceOnUse">
<stop stop-color="white"/>
<stop offset="1"/>
</linearGradient>
<linearGradient id="paint83_linear_267_221" x1="884.205" y1="537.413" x2="881.683" y2="491.482" gradientUnits="userSpaceOnUse">
<stop stop-color="white"/>
<stop offset="1"/>
</linearGradient>
<linearGradient id="paint84_linear_267_221" x1="883.341" y1="524.874" x2="880.888" y2="480.216" gradientUnits="userSpaceOnUse">
<stop stop-color="white"/>
<stop offset="1"/>
</linearGradient>
<linearGradient id="paint85_linear_267_221" x1="882.477" y1="512.342" x2="880.091" y2="468.945" gradientUnits="userSpaceOnUse">
<stop stop-color="white"/>
<stop offset="1"/>
</linearGradient>
<linearGradient id="paint86_linear_267_221" x1="881.614" y1="499.799" x2="879.296" y2="457.655" gradientUnits="userSpaceOnUse">
<stop stop-color="white"/>
<stop offset="1"/>
</linearGradient>
<linearGradient id="paint87_linear_267_221" x1="880.75" y1="487.264" x2="878.498" y2="446.346" gradientUnits="userSpaceOnUse">
<stop stop-color="white"/>
<stop offset="1"/>
</linearGradient>
<linearGradient id="paint88_linear_267_221" x1="879.889" y1="474.729" x2="877.7" y2="434.987" gradientUnits="userSpaceOnUse">
<stop stop-color="white"/>
<stop offset="1"/>
</linearGradient>
<linearGradient id="paint89_linear_267_221" x1="879.026" y1="462.196" x2="876.898" y2="423.582" gradientUnits="userSpaceOnUse">
<stop stop-color="white"/>
<stop offset="1"/>
</linearGradient>
<linearGradient id="paint90_linear_267_221" x1="878.163" y1="449.661" x2="876.094" y2="412.136" gradientUnits="userSpaceOnUse">
<stop stop-color="white"/>
<stop offset="1"/>
</linearGradient>
<linearGradient id="paint91_linear_267_221" x1="877.33" y1="437.547" x2="875.295" y2="400.652" gradientUnits="userSpaceOnUse">
<stop stop-color="white"/>
<stop offset="1"/>
</linearGradient>
<linearGradient id="paint92_linear_267_221" x1="876.538" y1="426.023" x2="874.503" y2="389.128" gradientUnits="userSpaceOnUse">
<stop stop-color="white"/>
<stop offset="1"/>
</linearGradient>
<linearGradient id="paint93_linear_267_221" x1="875.754" y1="414.602" x2="873.712" y2="377.574" gradientUnits="userSpaceOnUse">
<stop stop-color="white"/>
<stop offset="1"/>
</linearGradient>
<linearGradient id="paint94_linear_267_221" x1="874.977" y1="403.273" x2="872.921" y2="365.99" gradientUnits="userSpaceOnUse">
<stop stop-color="white"/>
<stop offset="1"/>
</linearGradient>
<linearGradient id="paint95_linear_267_221" x1="874.206" y1="392.024" x2="872.131" y2="354.378" gradientUnits="userSpaceOnUse">
<stop stop-color="white"/>
<stop offset="1"/>
</linearGradient>
<linearGradient id="paint96_linear_267_221" x1="873.438" y1="380.838" x2="871.338" y2="342.733" gradientUnits="userSpaceOnUse">
<stop stop-color="white"/>
<stop offset="1"/>
</linearGradient>
<linearGradient id="paint97_linear_267_221" x1="872.676" y1="369.722" x2="870.546" y2="331.067" gradientUnits="userSpaceOnUse">
<stop stop-color="white"/>
<stop offset="1"/>
</linearGradient>
<linearGradient id="paint98_linear_267_221" x1="871.918" y1="358.653" x2="869.753" y2="319.369" gradientUnits="userSpaceOnUse">
<stop stop-color="white"/>
<stop offset="1"/>
</linearGradient>
<linearGradient id="paint99_linear_267_221" x1="871.163" y1="347.632" x2="868.96" y2="307.643" gradientUnits="userSpaceOnUse">
<stop stop-color="white"/>
<stop offset="1"/>
</linearGradient>
<linearGradient id="paint100_linear_267_221" x1="870.41" y1="336.648" x2="868.166" y2="295.883" gradientUnits="userSpaceOnUse">
<stop stop-color="white"/>
<stop offset="1"/>
</linearGradient>
<linearGradient id="paint101_linear_267_221" x1="869.659" y1="325.702" x2="867.369" y2="284.091" gradientUnits="userSpaceOnUse">
<stop stop-color="white"/>
<stop offset="1"/>
</linearGradient>
<linearGradient id="paint102_linear_267_221" x1="868.912" y1="314.788" x2="866.573" y2="272.264" gradientUnits="userSpaceOnUse">
<stop stop-color="white"/>
<stop offset="1"/>
</linearGradient>
<linearGradient id="paint103_linear_267_221" x1="868.165" y1="303.896" x2="865.774" y2="260.394" gradientUnits="userSpaceOnUse">
<stop stop-color="white"/>
<stop offset="1"/>
</linearGradient>
<linearGradient id="paint104_linear_267_221" x1="867.422" y1="293.029" x2="864.974" y2="248.48" gradientUnits="userSpaceOnUse">
<stop stop-color="white"/>
<stop offset="1"/>
</linearGradient>
<linearGradient id="paint105_linear_267_221" x1="866.678" y1="282.181" x2="864.17" y2="236.516" gradientUnits="userSpaceOnUse">
<stop stop-color="white"/>
<stop offset="1"/>
</linearGradient>
<linearGradient id="paint106_linear_267_221" x1="865.937" y1="271.353" x2="863.364" y2="224.483" gradientUnits="userSpaceOnUse">
<stop stop-color="white"/>
<stop offset="1"/>
</linearGradient>
<linearGradient id="paint107_linear_267_221" x1="865.197" y1="260.544" x2="862.557" y2="212.418" gradientUnits="userSpaceOnUse">
<stop stop-color="white"/>
<stop offset="1"/>
</linearGradient>
<linearGradient id="paint108_linear_267_221" x1="864.459" y1="249.748" x2="861.748" y2="200.29" gradientUnits="userSpaceOnUse">
<stop stop-color="white"/>
<stop offset="1"/>
</linearGradient>
<linearGradient id="paint109_linear_267_221" x1="863.724" y1="238.992" x2="860.932" y2="188.04" gradientUnits="userSpaceOnUse">
<stop stop-color="#E6E6E6"/>
<stop offset="1"/>
</linearGradient>
<linearGradient id="paint110_linear_267_221" x1="862.985" y1="228.197" x2="860.096" y2="175.442" gradientUnits="userSpaceOnUse">
<stop stop-color="#D5D5D5"/>
<stop offset="1"/>
</linearGradient>
</defs>
</svg>
